<svg xmlns="http://www.w3.org/2000/svg" xmlns:xlink="http://www.w3.org/1999/xlink" xmlns:fi="http://pattern.flaticon.com/" width="3820" height="2160"><rect width="100%" height="100%" fill="#fff"/><defs><g id="a" fill="#e1e6fa"><path d="M171.04 283.92H140.6v-.16h-.08a8 8 0 00-7.92 8.08v30.52a8 8 0 008 8h30.44a8 8 0 008-8v-30.44a8 8 0 00-8-8zM163 314.24h-14.32v-14.32H163v14.32zm-51.68-94.88H80.88v-.16h-.08a8 8 0 00-7.92 8.08v30.48a8 8 0 008 8h30.44a8 8 0 008-8v-30.4a8 8 0 00-8-8zm-8.04 30.32H88.96v-14.32h14.32v14.32zm-22.44-95a8 8 0 00-7.96 8.04v30.64a8 8 0 008 8h30.4a8 8 0 008-8v-30.4a8 8 0 00-8-8H80.84l.04-.28h-.04zm8.12 16.28h14.28l.04 14.32H88.96v-14.32zm22.36 112.96H80.88v-.16h-.08a8 8 0 00-7.92 8.08v30.52a8 8 0 008 8h30.44a8 8 0 008-8v-30.44a8 8 0 00-8-8zm-8.04 30.32H88.96v-14.32h14.32v14.32zm127.48-94.88h-30.44l.04-.16h-.08a8 8 0 00-7.92 8.08v30.48a8 8 0 008 8h30.4a8 8 0 008-8v-30.4a8 8 0 00-8-8zm-8.04 30.32H208.4v-14.32h14.32v14.32zM302 51.6H92.6l.04-.12a21.798 21.798 0 00-14.92 5.88l-.4.52a21.801 21.801 0 00-6.4 15.48v34.44a21.8 21.8 0 006.4 15.4 21.799 21.799 0 0015.32 6.4h209.24a21.798 21.798 0 0015.44-6.4 21.8 21.8 0 006.56-15.44v-34.4c-.088-12.028-9.852-21.738-21.88-21.76zm5.64 56.12a5.678 5.678 0 01-1.64 4 5.682 5.682 0 01-4 1.68H92.56a5.678 5.678 0 01-4-1.64 5.678 5.678 0 01-1.64-4V73.28a5.683 5.683 0 011.68-4l.28-.28a5.678 5.678 0 013.76-1.4H302l-.08.04a5.76 5.76 0 015.72 5.72v34.36zm5.68 47.08h-50.48l-.12-.12h-.04a8 8 0 00-7.96 8.04v30.64a8 8 0 008 8h50.6a8 8 0 008-8V162.8a8 8 0 00-8-8zm-8 30.32h-34.56V170.8h34.56v14.32zm8 34.24h-50.48l-.12-.16h-.08a8 8 0 00-7.92 8.08v30.48a8 8 0 008 8h50.6a8 8 0 008-8v-30.4a8 8 0 00-8-8zm-8 30.32h-34.56v-14.32h34.56v14.32z" transform="matrix(.15486 -.11118 .11118 .15486 144.539 241.382)"/><path d="M345.44 8.8A29.84 29.84 0 00324.32 0h-254a29.837 29.837 0 00-21 8.8 29.843 29.843 0 00-8.88 21.12v334.84a29.84 29.84 0 008.76 21.08 29.84 29.84 0 0021.12 8.8h254a29.84 29.84 0 0021.08-8.76 29.84 29.84 0 008.8-21.12V29.88a29.84 29.84 0 00-8.76-21.08zm-7.4 355.96a13.718 13.718 0 01-4 9.72 13.72 13.72 0 01-9.72 4h-254a13.718 13.718 0 01-9.72-4 13.718 13.718 0 01-4-9.72V29.88a13.718 13.718 0 014-9.72 13.718 13.718 0 019.72-4h254a13.723 13.723 0 0113.72 13.76v334.84z" transform="matrix(.15486 -.11118 .11118 .15486 144.539 241.382)"/><path d="M200.32 154.68a8 8 0 00-7.96 8.04v30.64a8 8 0 008 8h30.36a8 8 0 008-8v-30.4a8 8 0 00-8-8h-30.44l.08-.28h-.04zm8.08 16.28h14.28l.04 14.32H208.4v-14.32zm-67.84-16.28a8 8 0 00-7.96 8.04v30.64a8 8 0 008 8H171a8 8 0 008-8v-30.4a8 8 0 00-8-8h-30.44l.04-.28h-.04zm8.12 16.28h14.28l.04 14.32h-14.32v-14.32zm164.64 112.96h-50.48l-.12-.16h-.08a8 8 0 00-7.92 8.08v30.52a8 8 0 008 8h50.6a8 8 0 008-8v-30.44a8 8 0 00-8-8zm-8 30.32h-34.56v-14.32h34.56v14.32zm-74.56-30.32h-30.44l.04-.16h-.08a8 8 0 00-7.92 8.08v30.52a8 8 0 008 8h30.4a8 8 0 008-8v-30.44a8 8 0 00-8-8zm-8.04 30.32H208.4v-14.32h14.32v14.32zm-51.68-94.88H140.6v-.16h-.08a8 8 0 00-7.92 8.08v30.48a8 8 0 008 8h30.44a8 8 0 008-8v-30.4a8 8 0 00-8-8zM163 249.68h-14.32v-14.32H163v14.32z" transform="matrix(.15486 -.11118 .11118 .15486 144.539 241.382)"/></g><g id="c" fill="#e1e6fa"><path d="M404.96 212.62h-182.8a8 8 0 00-8 8v182.8a8 8 0 008 8c105.376 0 190.8-85.424 190.8-190.8a8 8 0 00-8-8zM230.16 395.1V228.74h166.36c-4.179 90.09-76.27 162.181-166.36 166.36z" transform="translate(187.313 299.278) scale(.21659)"/><path d="M381.6 192.34c0-105.376-85.424-190.8-190.8-190.8S0 86.964 0 192.34s85.424 190.8 190.8 190.8a8 8 0 008-8V200.5l174.8-.16a8 8 0 008-8zm-190.8-7.96a8 8 0 00-8 8v174.48l-.08.04c-90.111-4.167-162.221-76.276-166.387-166.387-4.455-96.348 70.039-178.065 166.387-182.52S360.785 88.032 365.24 184.38H190.8z" transform="translate(187.313 299.278) scale(.21659)"/></g><g transform="rotate(-54.463 127.484 121.237) scale(.18872)" id="e" fill="#e1e6fa"><circle cx="245" cy="252" r="13"/><path d="M383.36 207.52a20.878 20.878 0 00-14.8-6.16h-5.8v-73.12c-.044-25.506-20.734-46.16-46.24-46.16h-24.64v-44c-.044-19.665-15.975-35.596-35.64-35.64H121.72c-19.665.044-35.596 15.975-35.64 35.64v44H67.12c-24.152.078-44.184 18.716-46 42.8a46.473 46.473 0 00-7.56 6.12A46.003 46.003 0 000 163.6v177.28c.066 25.444 20.676 46.054 46.12 46.12h249.44c24.167-.079 44.204-18.74 46-42.84a46.686 46.686 0 0014.2-14.56 45.79 45.79 0 006.88-24v-2.4h5.92a20.882 20.882 0 0014.72-6.12 20.879 20.879 0 006.16-14.76v-60a20.88 20.88 0 00-6.08-14.8zM291.88 98.24h24.64a29.88 29.88 0 0121.16 8.84 29.877 29.877 0 018.8 21.16v73.12h-4.84V163.6c-.066-25.428-20.652-46.032-46.08-46.12h-3.68V98.24zM102.24 37.92c.044-10.74 8.74-19.436 19.48-19.48h134.52c10.74.044 19.436 8.74 19.48 19.48v79.56h-12.64v-58a8 8 0 00-8-8c-6.132-.022-11.098-4.988-11.12-11.12a8 8 0 00-8-8h-93.8a8 8 0 00-8 8c-.087 6.185-5.172 11.128-11.357 11.041l-.043-.001a8 8 0 00-8 8v58h-12.52V37.92zm144.52 28.4v51.16h-116V66.32a27.481 27.481 0 0017.96-17.96h80a27.479 27.479 0 0018.04 17.96zm-200.8 40.76a29.877 29.877 0 0121.16-8.8h18.96v19.24H42.32c-1.16 0-2.32.24-3.44.4a30.153 30.153 0 017.08-10.84zm279.6 233.8c-.066 16.519-13.441 29.894-29.96 29.96H46.12c-16.519-.066-29.894-13.441-29.96-29.96V163.6a29.877 29.877 0 018.8-21.16 28.8 28.8 0 0117.8-8.64h252.8c16.519.066 29.894 13.441 29.96 29.96v37.76h-83.36c-28.538.469-51.293 23.983-50.825 52.521.005.32.013.639.025.959 0 26.2 19.64 48.24 50.8 48.24h83.36l.04 36.24v1.4zm20.96-35.36a29.721 29.721 0 01-4.4 15.64l-.4.64v-18.72h4.84l-.04 2.44zm26.84-23.32a4.758 4.758 0 01-1.36 3.36 4.76 4.76 0 01-3.36 1.36H242.16c-13.56 0-34.68-6.08-34.68-36 0-23.68 21.44-33.36 34.68-33.36H368.6a4.8 4.8 0 014.76 4.76v59.88z"/></g><g transform="rotate(28.072 192.389 613.776) scale(.20637)" id="g" fill="#e1e6fa"><circle cx="245" cy="212" r="13"/><path d="M368.32 161.48h-5.92l.36-73.16c-.044-25.506-20.734-46.16-46.24-46.16H67.12c-24.152.078-44.184 18.716-46 42.8a46.526 46.526 0 00-7.56 6.12A46.003 46.003 0 000 123.68v177.28c.066 25.444 20.676 46.054 46.12 46.12h249.56c24.167-.079 44.204-18.74 46-42.84a46.686 46.686 0 0014.2-14.56 45.79 45.79 0 006.88-24v-2.4h5.6a20.882 20.882 0 0014.72-6.12 20.879 20.879 0 006.16-14.76v-60c-.022-11.545-9.375-20.898-20.92-20.92zM67.12 58.36h249.44c16.519.066 29.894 13.441 29.96 29.96v73.12h-4.84v-37.76c-.066-25.444-20.676-46.054-46.12-46.12H46.12l-3.56.2c-1.16.04-2.32.4-3.44.4a30.16 30.16 0 0128-19.8zm258.4 242.6c-.066 16.519-13.441 29.894-29.96 29.96H46.12c-16.519-.066-29.894-13.441-29.96-29.96V123.8a29.877 29.877 0 018.8-21.16 28.8 28.8 0 0117.72-8.92h252.88c16.519.066 29.894 13.441 29.96 29.96v37.8h-83.36c-.32.005-.639.013-.959.025-28.525.998-50.839 24.931-49.841 53.455 0 26.2 19.64 48.24 50.8 48.24h83.36v37.76zm20.84-35.36a29.721 29.721 0 01-4.4 15.64l-.4.64V263.2h4.84l-.04 2.4zm26.84-23.12a4.758 4.758 0 01-1.36 3.36 4.76 4.76 0 01-3.36 1.36h-34.96l-91.36-.12c-13.56 0-34.68-6-34.68-36 0-23.68 21.44-33.36 34.68-33.36h126.28a4.8 4.8 0 014.76 4.76v60z"/></g><g id="i" fill="#e1e6fa"><path d="M301.96 314.46h55.52c10.44-.022 18.898-8.48 18.92-18.92V96.42c-.022-10.44-8.48-18.898-18.92-18.92h-55.52c-10.44.022-18.898 8.48-18.92 18.92v199.12c.022 10.44 8.48 18.898 18.92 18.92zm-2.8-218.08a2.8 2.8 0 012.8-2.76h55.52v.04a2.8 2.8 0 012.76 2.76v199.12a2.8 2.8 0 01-2.76 2.8h-55.52a2.8 2.8 0 01-2.8-2.8V96.38zm-116.4 218.08h55.44c10.44-.022 18.898-8.48 18.92-18.92V132.3c-.152-10.315-8.524-18.616-18.84-18.68h-55.52v-.24c-10.44.022-18.898 8.48-18.92 18.92v163.24c.022 10.44 8.48 18.898 18.92 18.92zm-2.8-182.08a2.8 2.8 0 012.8-2.76h55.52v-.08a2.8 2.8 0 012.76 2.76v163.24a2.8 2.8 0 01-2.76 2.8h-55.52a2.8 2.8 0 01-2.8-2.8V132.38z" transform="rotate(-45 281.275 -13.302) scale(.16628)"/><path d="M402 340.9H16V61.1a8 8 0 00-16 0l.08 287.8a8 8 0 008 8H402a8 8 0 000-16z" transform="rotate(-45 281.275 -13.302) scale(.16628)"/><path d="M63.56 314.46h55.52c10.44-.022 18.898-8.48 18.92-18.92v-128.6c-.022-10.44-8.48-18.898-18.92-18.92H63.56v-.16c-10.44.022-18.898 8.48-18.92 18.92v128.76c.022 10.44 8.48 18.898 18.92 18.92zM60.8 166.78a2.8 2.8 0 012.76-2.76h55.52a2.8 2.8 0 012.76 2.76v128.76a2.8 2.8 0 01-2.76 2.8H63.56a2.8 2.8 0 01-2.76-2.8V166.78z" transform="rotate(-45 281.275 -13.302) scale(.16628)"/></g><g id="k" fill="#e1e6fa"><path d="M175.902 352h-64c-22.09 0-40-17.91-40-40v-16c0-22.09 17.91-40 40-40h64c22.094 0 40 17.91 40 40v16a8 8 0 01-16 0v-16c0-13.254-10.746-24-24-24h-64c-13.254 0-24 10.746-24 24v16c0 13.254 10.746 24 24 24h64a8 8 0 010 16zm0 0" transform="rotate(-45 228.685 -93.903) scale(.23023)"/><path d="M175.902 304a8 8 0 11-16 0 8 8 0 0116 0zm-48 0a8 8 0 11-16 0 8 8 0 0116 0zm80-80a8 8 0 11-16 0 8 8 0 0116 0zm0 0" transform="rotate(-45 228.685 -93.903) scale(.23023)"/><path d="M199.902 236c-6.625 0-12-5.371-12-12s5.375-12 12-12c6.63 0 12 5.371 12 12s-5.37 12-12 12zm0-16a4 4 0 100 8 4 4 0 000-8zm-104 4a8 8 0 11-16 0 8 8 0 0116 0zm0 0" transform="rotate(-45 228.685 -93.903) scale(.23023)"/><path d="M87.902 236c-6.625 0-12-5.371-12-12s5.375-12 12-12c6.63 0 12 5.371 12 12s-5.37 12-12 12zm0-16a4 4 0 100 8 4 4 0 000-8zm56-84c-22.09 0-40-17.91-40-40s17.91-40 40-40c22.094 0 40 17.91 40 40s-17.906 40-40 40zm0-64c-13.254 0-24 10.746-24 24s10.746 24 24 24 24-10.746 24-24-10.746-24-24-24zm0-32a8 8 0 01-8-8V16a8 8 0 0116 0v16a8 8 0 01-8 8zm-32 0a8 8 0 01-8-8V8a8 8 0 0116 0v24a8 8 0 01-8 8zm64 8a8 8 0 01-8-8V8a8 8 0 0116 0v32a8 8 0 01-8 8zm48 432h-32c-13.254 0-24-10.746-24-24a8 8 0 0116 0 8 8 0 008 8h32a8 8 0 008-8v-64a8.007 8.007 0 012.32-5.68c48.645-48.601 50.2-126.949 3.52-177.441a8.005 8.005 0 01-1.039-8.879l16-27.762c6.629-11.484 2.688-26.172-8.8-32.797-11.489-6.629-26.173-2.687-32.801 8.797l-14 24a8 8 0 01-9.68 3.524 126.748 126.748 0 00-20.957-5.684 8.129 8.129 0 01-6.563-9.437 8.135 8.135 0 019.442-6.563 146.18 146.18 0 0117.199 4.242l10.719-18.558c11.12-18.969 35.468-25.407 54.508-14.414 19.042 10.996 25.64 35.297 14.773 54.414l-13.121 22.718c48.023 56.239 45.64 139.715-5.52 193.122V456c0 13.254-10.746 24-24 24zm0 0" transform="rotate(-45 228.685 -93.903) scale(.23023)"/><path d="M143.902 440a146.594 146.594 0 01-33.84-4.16c-2.117-.438-3.964-1.715-5.124-3.54s-1.532-4.038-1.036-6.14a8 8 0 019.602-5.84 126.125 126.125 0 0060.32 0 7.995 7.995 0 019.598 5.84 7.992 7.992 0 01-.945 6.07 8.009 8.009 0 01-4.973 3.61 146.704 146.704 0 01-33.602 4.16zm0 0" transform="rotate(-45 228.685 -93.903) scale(.23023)"/><path d="M95.902 480h-32c-13.254 0-24-10.746-24-24v-60.398c-51.011-53.372-53.398-136.68-5.52-192.883L21.263 180c-10.867-19.113-4.27-43.418 14.773-54.41 19.043-10.996 43.387-4.559 54.508 14.41l10.719 18.559a146.226 146.226 0 0117.203-4.239 8.123 8.123 0 019.437 6.559 8.129 8.129 0 01-6.558 9.441 126.78 126.78 0 00-20.961 5.68 8 8 0 01-9.68-3.52l-14-24c-6.629-11.488-21.312-15.43-32.8-8.8-11.489 6.629-15.426 21.312-8.801 32.8l16 27.758a8 8 0 01-1.04 9.442c-46.675 50.492-45.12 128.84 3.52 177.441a7.99 7.99 0 012.32 4.879v64a8 8 0 008 8h32a8 8 0 008-8 8 8 0 0116 0c0 13.254-10.746 24-24 24zm0 0" transform="rotate(-45 228.685 -93.903) scale(.23023)"/></g><g id="m" fill="#e1e6fa"><path d="M17.6 18.3L15.7 20c1.9 1.3 4 2 6.3 2.2v1.5h1.6v-1.4c2.8-.1 5.8-1.3 5.8-4 0-1.2-.5-2.1-1.4-2.7s-2.4-1.1-4.4-1.5h-.1v-3.8c1.3.1 2.6.5 3.7 1.2L29 9.6c-1.7-.9-3.5-1.4-5.4-1.5v-1H22v1c-1.7.1-3 .5-4.1 1.2-1 .7-1.6 1.7-1.6 2.8 0 1.2.5 2 1.4 2.6s2.3 1.1 4.3 1.4V20c-1.5-.2-3-.8-4.4-1.7zm6.1-1.8c1 .2 1.7.5 2.1.8s.6.6.6 1.1-.2.9-.7 1.2-1.1.5-2 .6zm-3.6-3.6c-.3-.3-.5-.6-.5-1.1 0-.4.2-.8.7-1.1.4-.3 1-.5 1.8-.5v3.5c-1.1-.3-1.7-.5-2-.8zm30.3 33.6l-.1-4.9c1.3.2 2.6.7 3.7 1.5l1.7-2.4c-1.7-1.2-3.5-1.8-5.4-2v-1.3h-1.7v1.3c-1.7.1-3.1.6-4.1 1.6-1.1 1-1.6 2.2-1.6 3.7s.5 2.6 1.4 3.4 2.4 1.4 4.3 1.9v5.1c-1.5-.2-3.1-1-4.5-2.3l-1.9 2.3c1.9 1.7 4 2.6 6.4 2.8V59h1.7v-1.9c1.8-.1 3.2-.6 4.3-1.6s1.6-2.2 1.6-3.7-.5-2.7-1.4-3.5c-.9-.7-2.4-1.4-4.4-1.8zm-1.7-.5c-1-.3-1.6-.6-2-1-.3-.3-.5-.8-.5-1.4s.2-1.1.7-1.5c.4-.4 1.1-.6 1.8-.7zm3.6 7.6c-.5.4-1.1.6-2 .7v-4.7c1 .3 1.8.6 2.1 1 .4.4.6.8.6 1.4.1.7-.2 1.2-.7 1.6z" transform="rotate(-45 225.645 -215.702) scale(1.27483)"/><path d="M49.3 31.9c-2 0-3.9.4-5.7 1-.1-1.4-.5-2.7-1.3-4 .9-1.4 1.4-2.9 1.4-4.6 0-1.6-.5-3.1-1.4-4.5.9-1.4 1.4-2.9 1.4-4.5 0-7.1-9.5-12.8-21.1-12.8-14.4 0-25 8.8-19.7 17.3-.9 1.4-1.4 3-1.4 4.5 0 1.7.5 3.2 1.4 4.7-1.8 2.9-1.9 6 0 9-1.8 2.9-1.9 6.1 0 9.1-.9 1.4-1.4 3-1.4 4.5 0 7.1 9.5 12.8 21.1 12.8 6.1 0 11.7-1.6 15.7-4.3 2.9 2.6 6.7 4.3 10.9 4.3 9 0 16.2-7.3 16.2-16.2s-7.2-16.3-16.1-16.3zM22.6 4.6c10.5 0 19.1 4.8 19.1 10.8 0 3.1-2.4 5.7-5.1 7.3 0 0-.1 0-.1.1-12.1 7.3-32.9 2-32.9-7.4-.1-6 8.5-10.8 19-10.8zm-18.4 17c7.9 8.7 28.9 8.7 36.8 0C47.2 34.4 13.8 41 4.9 28.4l-.1-.1c-.8-1.2-1.3-2.5-1.3-3.9 0-.9.2-1.9.7-2.8zm0 9.1c8 8.7 29 8.7 36.8 0 .4.9.7 1.8.7 2.8 0 .1 0 .2.1.3-3.4 1.8-6 4.7-7.5 8.2-4.7 1.7-9.1 2.8-15.7 2-8.2-.9-17.9-6.3-14.4-13.3zm0 9.1c6.4 7 20.3 8 29.3 4.7-.5 2.3-.6 4.6-.1 7-14.2 5.5-34-2-29.2-11.7zm18.4 22.6c-10.5 0-19.1-4.8-19.1-10.8 0-1 .2-1.9.7-2.8 6.5 7.1 20.8 8 29.7 4.5.7 2 1.7 3.8 3 5.3-3.7 2.5-8.8 3.8-14.3 3.8zm26.7 0C41.4 62.4 35 56 35 48.2S41.4 34 49.2 34c7.9 0 14.2 6.4 14.2 14.2s-6.3 14.2-14.1 14.2z" transform="rotate(-45 225.645 -215.702) scale(1.27483)"/></g><g id="o" fill="#e1e6fa"><path d="M64 6.3H41.8l-4.1-4.5c-.2-.2-.5-.3-.7-.3h-7c-.3 0-.5.1-.7.3l-4.1 4.5H3c-.6 0-1 .4-1 1v5.1c0 .6.4 1 1 1h1.6v36.5c0 .6.4 1 1 1h26.9v5.7c-2.2.5-3.8 2.7-3.4 5.2.3 1.8 1.7 3.2 3.4 3.6 2.9.6 5.5-1.6 5.5-4.4 0-2.1-1.5-3.9-3.5-4.4v-5.7h26.9c.6 0 1-.4 1-1V13.4H64c.6 0 1-.4 1-1V7.3c0-.5-.4-1-1-1zM35.9 60.4c.4 1.8-1.2 3.5-3 3-.9-.2-1.6-.9-1.8-1.8-.5-1.8 1.2-3.5 3-3 .9.2 1.6.9 1.8 1.8zm24.5-11.5H6.6V13.4h53.8zM63 11.4H4V8.3h21.6c.3 0 .5-.1.7-.3l4.1-4.5h6L40.6 8c.2.2.5.3.7.3H63z" transform="rotate(-45 385.89 -169.455) scale(1.30335)"/><path d="M16.8 37.2c-.7-.3-1.5-.5-2.3-.2-1.2.3-2.1 1.4-2.3 2.6-.3 2.2 1.5 4 3.7 3.7 1.2-.2 2.2-1.1 2.6-2.3.2-.8.1-1.6-.2-2.3l8.3-8.3c.5.3 1.1.5 1.8.5s1.4-.3 1.9-.7l7.3 5.4c-.3.9-.3 1.9 1.1 3.2.5.5 1.2.8 2 .9 1.8 0 3.2-1.4 3.2-3.2 0-.6-.2-1.1-.4-1.6l7.1-9.4c.8.3 1.6.3 2.6-.3.9-.6 1.6-1.5 1.7-2.6.1-2.1-1.8-3.7-3.9-3.3-1.2.3-2.2 1.3-2.4 2.5-.2.9.1 1.8.5 2.4l-7 9.2c-.4-.2-.8-.3-1.3-.3-.7 0-1.4.3-2 .7l-7.2-5.4c.3-.9.3-1.8-.9-3.1-.6-.6-1.3-1-2.1-1-1.8 0-3.3 1.4-3.3 3.2 0 .4.1.8.2 1.1zm-1.4 4.1c-.7 0-1.2-.5-1.2-1.2s.5-1.2 1.2-1.2 1.2.5 1.2 1.2-.5 1.2-1.2 1.2zm36.2-20.2c.7 0 1.2.5 1.2 1.2s-.5 1.2-1.2 1.2-1.2-.5-1.2-1.2.5-1.2 1.2-1.2zm-11 14c.7 0 1.2.5 1.2 1.2s-.5 1.2-1.2 1.2-1.2-.5-1.2-1.2.6-1.2 1.2-1.2zm-12.2-8.8c.7 0 1.2.5 1.2 1.2s-.5 1.2-1.2 1.2-1.2-.5-1.2-1.2c-.1-.6.5-1.2 1.2-1.2zm-17.9-2.2h5.8c.6 0 1-.4 1-1v-5.8c0-.6-.4-1-1-1h-5.8c-.6 0-1 .4-1 1v5.8c0 .6.4 1 1 1zm1-5.7h3.8v3.8h-3.8zm38.2 20.8V45c0 .6.4 1 1 1h5.8c.6 0 1-.4 1-1v-5.8c0-.6-.4-1-1-1h-5.8c-.5 0-1 .5-1 1zm2 1h3.8V44h-3.8z" transform="rotate(-45 385.89 -169.455) scale(1.30335)"/></g><g id="q" fill="#e1e6fa"><path d="M64.5 8.6h-7.7c-.6 0-1 .4-1 1v1.7C46 8.8 45 7.5 44.7 7.3c-.4-.2-9.3-4.5-13.8-1.2l-.2.1-2.1-2.5c-1.1-1.4-3.2-1.5-4.5-.4l-21.5 18c-1.3 1.1-1.5 3.2-.4 4.5l31.2 37.3c.6.8 1.5 1.1 2.5 1.1.7 0 1.5-.2 2.1-.7l21.5-18c1.3-1.1 1.5-3.2.4-4.5l-1.6-1.9h6.2c.6 0 1-.4 1-1V9.6c0-.5-.4-1-1-1zM43.7 9c2.3 1.8 9.6 3.7 12.1 4.4v17.8c-.9-.1-2.2-.1-3.1.6-.1.1-.2.1-.3.2-14.4-16.9-14-17.6-16.6-16.4-.4.2-.7.4-1.1.8-4.3 4.1-9 4-8.3 3.9-3.4 0-5.2-2.4-5.1-3.4 0-.6.5-.7 1.9-1.9l8.9-7.2c2.9-2.2 9.3.1 11.6 1.2zm7.8 40.7L28.4 22.1c1.4-.3 2.6-.8 3.7-1.4l22.3 26.6zM21.6 8.1l2.8 3.3-2.9 2.4-2.7-3.2zm4.6-3.5c.9 0 1.1.9 3 2.9l-3 2.5-.2.2-2.8-3.3c2.2-1.8 2.3-2.3 3-2.3zm10.5 57.5c-.5.4-1.3.4-1.7-.1L3.8 24.7c-.4-.5-.4-1.3.1-1.7l13.3-11.1 2.7 3.3c-1.9 2.5.9 7 6 7.2L50 51zM58.2 44l-2.3 2-22-26.4c1.3-.9 2.2-1.7 2.3-1.9.4-.5.8-.5 1.1-.5 28.9 34.3 19 22.5 21.1 25 .4.7.3 1.4-.2 1.8zm-4.5-10.3c0-.2.1-.2.2-.3.4-.3 1.2-.3 1.9-.2v3zm9.8 3.5h-5.7V10.6h5.7z" transform="translate(283 269) scale(.89552)"/><path d="M44 50.6l-5.6-6.7c-.2-.2-.4-.3-.7-.4-.3 0-.5.1-.7.2l-6.7 5.6c-.4.4-.5 1-.1 1.4l5.6 6.7c.2.2.5.4.8.4.2 0 .5-.1.6-.2l6.7-5.6c.4-.4.5-1 .1-1.4zm-7.4 4.8l-4.3-5.2 5.2-4.3 4.3 5.2zM24.5 40.9c-.4-.4-1-.5-1.4-.1s-.5 1-.1 1.4l3.4 4.1c.2.2.5.4.8.4.2 0 .5-.1.6-.2.4-.4.5-1 .1-1.4zm-7.3-8.7c-.4-.4-1-.5-1.4-.1s-.5 1-.1 1.4l3.4 4.1c.2.2.5.4.8.4.2 0 .5-.1.6-.2.4-.4.5-1 .1-1.4zm-7.4-8.8c-.4-.4-1-.5-1.4-.1s-.5 1-.1 1.4l3.4 4.1c.2.2.5.4.8.4.2 0 .5-.1.6-.2.4-.4.5-1 .1-1.4z" transform="translate(283 269) scale(.89552)"/></g><g id="s" fill="#e1e6fa"><path d="M65.3 7.4c-.2-.2-.4-.3-.7-.4L38.2 4c-.3 0-.5 0-.7.2s-.3.4-.4.7L35 23.8l-8.9 4.7c-3.8 1.8-8.8 10.2-9 10.6-1.5 2.7-3.2 3.6-4.3 3.9v-1.8c0-.6-.4-1-1-1H2.5c-.6 0-1 .4-1 1v20.7c0 .6.4 1 1 1h9.3c.6 0 1-.4 1-1v-3.1h8.3c6.2 0 7.2-2.9 9.4-5.6 0 1 .3 2 .8 2.8s1.6 1.6 3.6 1.6c.5 0 .9-.4 1-.9l.7-4.6h.1c1.1 1.2 4 1.9 4.3.5l10.1 1.1c8.8 1 8.1.9 8.2.9.5 0 .9-.4 1-.9L65.5 8c0-.1-.1-.3-.2-.6zm-5.9 37.2c-4.4 0-8.1 3-9 7.2l-9.1-1 1.3-8.6c.8-.7.8-.7.9-.8 2.7-3.3-1.3-8.2-5.6-6-.1 0-.1.1-.2.1l-2.3 1.8 2.6-23h.6c4.3 0 8-3 8.9-7.1l7.8.8v.2c0 4.3 3 8 7.2 9zm-7 7.3c.8-3.1 3.5-5.3 6.8-5.4l-.7 6.1zM38 46.1l2.3-1.9-1.1 7.2c-2.1-.5-1.8-3.4-1.2-5.3zm7.7-39.2c-.9 3.2-3.9 5.5-7.3 5.3l.6-6zm17 8.3c-3.1-.8-5.3-3.6-5.4-6.9l6.1.7zM33.3 38.9L31.9 40l.5-5.2 1.4-.6zm-22.5 22H3.5V42.2h7.3zm16.3-6.5c-.1.1-1.3 2.4-6.1 2.4h-8.3V45.1c1.4-.3 4-1.4 6-5 1.3-2.3 5.4-8.5 8.2-9.8l7.6-4-.7 5.6-2.8 1.2c-.3.1-.6.5-.6.8l-.7 8.1c0 .4.2.8.5 1 .4.2.8.2 1.1-.1.6-.4 8.1-6.3 7.6-5.9 2.6-1.2 4.2 1.4 3.1 2.9l-6.1 5.2-4.5 3.8-.1.1c-.8 1-3.8 4.7-4.2 5.4zm5.8.5c-.8-1.2-.4-3.5 0-4.6l2.3-1.9-1.1 7.2c-.5-.1-.9-.4-1.2-.7z" transform="matrix(.8354 -.8354 .8354 .8354 71.67 290.752)"/><path d="M49.4 22.8c-3.6 0-6.6 3-6.6 6.6s3 6.6 6.6 6.6 6.6-3 6.6-6.6-3-6.6-6.6-6.6zm0 11.2c-2.5 0-4.6-2.1-4.6-4.6s2.1-4.6 4.6-4.6 4.6 2.1 4.6 4.6c0 2.6-2.1 4.6-4.6 4.6z" transform="matrix(.8354 -.8354 .8354 .8354 71.67 290.752)"/></g><g transform="rotate(-45 280.945 141.171) scale(1.44772)" id="u" fill="#e1e6fa"><path d="M57 1.5H10c-3 0-5.4 2.4-5.4 5.3v47.1c0 2.9 2.4 5.3 5.3 5.3h2.3V62c0 1.9 1.5 3.4 3.4 3.4h6.6c1.9 0 3.4-1.5 3.4-3.4v-2.8h15.7V62c0 1.9 1.5 3.4 3.4 3.4h6.6c1.9 0 3.4-1.5 3.4-3.4v-2.8H57c2.9 0 5.3-2.4 5.3-5.3V6.8c.1-2.9-2.3-5.3-5.3-5.3zM23.6 62.1c0 .8-.6 1.4-1.4 1.4h-6.6c-.8 0-1.4-.6-1.4-1.4v-2.8h9.4zm29.1 0c0 .8-.6 1.4-1.4 1.4h-6.6c-.8 0-1.4-.6-1.4-1.4v-2.8h9.4zm7.7-8.2c0 1.8-1.5 3.3-3.3 3.3h-2.3V54c0-.6-.4-1-1-1s-1 .4-1 1v3.2H48V54c0-.6-.4-1-1-1s-1 .4-1 1v3.2h-4.7V54c0-.6-.4-1-1-1s-1 .4-1 1v3.2h-4.7V54c0-.6-.4-1-1-1s-1 .4-1 1v3.2h-4.7V54c0-.6-.4-1-1-1s-1 .4-1 1v3.2H21V54c0-.6-.4-1-1-1s-1 .4-1 1v3.2h-4.7V54c0-.6-.4-1-1-1s-1 .4-1 1v3.2H10c-1.8 0-3.3-1.5-3.3-3.3V6.8C6.6 5 8.1 3.5 10 3.5h47c1.8 0 3.3 1.5 3.3 3.3v47.1z"/><path d="M54.2 11.3H12.8c-.6 0-1 .4-1 1v4.4H9.4c-.6 0-1 .4-1 1v6.7c0 .6.4 1 1 1h2.4v10H9.4c-.6 0-1 .4-1 1v6.7c0 .6.4 1 1 1h2.4v4.4c0 .6.4 1 1 1h41.4c.6 0 1-.4 1-1V12.3c0-.6-.5-1-1-1zm-43.8 7.4h5c1.3 0 2.4 1.1 2.4 2.4s-1.1 2.3-2.4 2.3h-5zm0 18.7h5c1.3 0 2.4 1.1 2.4 2.4s-1.1 2.3-2.4 2.3h-5zm42.8 10.1H13.8v-3.4h1.6c2.4 0 4.4-1.9 4.4-4.3s-2-4.4-4.4-4.4h-1.6v-10h1.6c2.4 0 4.4-1.9 4.4-4.3s-2-4.4-4.4-4.4h-1.6v-3.4h39.4zM26.7 8.4h18.9c.6 0 1-.4 1-1s-.4-1-1-1H26.7c-.6 0-1 .4-1 1s.5 1 1 1zm-5.4 0h2.3c.6 0 1-.4 1-1s-.4-1-1-1h-2.3c-.6 0-1 .4-1 1s.5 1 1 1z"/><path d="M41 39.6c0 2.6 2.1 4.7 4.7 4.7s4.7-2.1 4.7-4.7c0-2.2-1.6-4.1-3.7-4.6v-9.3c2.1-.5 3.7-2.3 3.7-4.6 0-2.6-2.1-4.7-4.7-4.7S41 18.6 41 21.2c0 2.2 1.6 4.1 3.7 4.6V35c-2.1.5-3.7 2.3-3.7 4.6zm7.3 0c0 1.5-1.2 2.7-2.7 2.7s-2.7-1.2-2.7-2.7c0-1.1.7-2.1 1.7-2.5v2.5c0 .6.4 1 1 1s1-.4 1-1v-2.5c1 .4 1.7 1.4 1.7 2.5zM43 21.2c0-1.5 1.2-2.7 2.7-2.7s2.7 1.2 2.7 2.7c0 1.1-.7 2.1-1.7 2.5v-2.5c0-.6-.4-1-1-1s-1 .4-1 1v2.5c-1-.4-1.7-1.4-1.7-2.5zM29.5 40c5.3 0 9.6-4.3 9.6-9.6s-4.3-9.6-9.6-9.6-9.6 4.3-9.6 9.6 4.3 9.6 9.6 9.6zm0-17.2c4.2 0 7.6 3.4 7.6 7.6S33.6 38 29.5 38s-7.6-3.4-7.6-7.6 3.4-7.6 7.6-7.6z"/><path d="M29.5 26c.6 0 1-.4 1-1v-.6c0-.6-.4-1-1-1s-1 .4-1 1v.6c0 .5.4 1 1 1zm0 8.8c-.6 0-1 .4-1 1v.6c0 .6.4 1 1 1s1-.4 1-1v-.6c0-.6-.5-1-1-1zm-4.6-7.5c.2.2.5.3.7.3s.5-.1.7-.3c.4-.4.4-1 0-1.4l-.5-.5c-.4-.4-1-.4-1.4 0s-.4 1 0 1.4zm8.1 8.1c.2.2.5.3.7.3s.5-.1.7-.3c.4-.4.4-1 0-1.4l-.4-.5c-.4-.4-1-.4-1.4 0s-.4 1 0 1.4zm-7.9-5c0-.6-.4-1-1-1h-.6c-.6 0-1 .4-1 1s.4 1 1 1h.6c.5 0 1-.5 1-1zm8.8 0c0 .6.4 1 1 1h.6c.6 0 1-.4 1-1s-.4-1-1-1h-.6c-.6 0-1 .4-1 1zm-9 3.1l-.4.5c-.4.4-.4 1 0 1.4.2.2.5.3.7.3s.5-.1.7-.3l.5-.5c.4-.4.4-1 0-1.4s-1.1-.4-1.5 0zm8.4-5.9c.3 0 .5-.1.7-.3l.5-.5c.4-.4.4-1 0-1.4s-1-.4-1.4 0l-.5.5c-.4.4-.4 1 0 1.4.2.2.4.3.7.3z"/><circle cx="29" cy="30" r="1"/></g><g id="w" fill="#e1e6fa"><path d="M59.7 27.4h-.2c-.1-.3-.3-.6-.5-.9-10.9-15.7 1.2 1.8-11.7-16.8l-1-1.5c-1.8-2.6-5.4-3.3-8.1-1.5L4 30.5c-2.6 1.8-3.3 5.4-1.5 8.1l.9 1.3c12 17.3 7.9 11.4 8.8 12.7v2.9c0 3.2 2.6 5.8 5.8 5.8h41.7c3.2 0 5.8-2.6 5.8-5.8V33.2c0-3.2-2.6-5.8-5.8-5.8zm-2.5 0h-3.6c-.2-.5-.4-1-.7-1.4-.8-1.2-2.1-2-3.4-2.2-1.4-.3-2.8.1-4 .9-1 .7-1.7 1.7-2 2.8H35L50 17zm-5.8 0h-5.9c.2-.4.6-.8 1-1.1.7-.5 1.6-.7 2.5-.5.9.1 1.6.6 2.2 1.4.1 0 .1.1.2.2zm-5.2-15.9l2.7 3.9-17.3 12h-8.3zM12.2 49l-2.7-3.9 2.7-1.9zm0-8.2l-3.9 2.7c-.1-.1-2.9-4.1-2.7-3.9l6.6-4.5zm0-8.3c0 .1 0 .1 0 0l-7.7 5.4-.3-.5c-1.2-1.7-.8-4.1 1-5.3L39.4 8.4c.7-.5 1.4-.7 2.1-.7 1.2 0 2.4.6 3.1 1.6l.4.6-25.3 17.5H18c-3 0-5.4 2.2-5.8 5.1zm51.3 23c0 2.1-1.7 3.8-3.8 3.8H18c-2.1 0-3.8-1.7-3.8-3.8l.1-23.1c0-.1 0-.1.1-.2.4-1.6 1.9-2.8 3.6-2.8h41.7c2.1 0 3.8 1.7 3.8 3.8z" transform="rotate(-23.356 106.648 -156.042) scale(1.58061)"/><path d="M22.1 52.3c-2.8.2-5.3-.7-5.3 1 0 .6.4 1 1 1h4.3c.6 0 1-.4 1-1s-.5-1-1-1zm9.4 0h-4.3c-.6 0-1 .4-1 1s.4 1 1 1h4.3c.6 0 1-.4 1-1s-.4-1-1-1zm9.5 0h-4.3c-.6 0-1 .4-1 1s.4 1 1 1H41c.6 0 1-.4 1-1s-.5-1-1-1zm9.4 0h-4.3c-.6 0-1 .4-1 1s.4 1 1 1h4.3c.6 0 1-.4 1-1s-.4-1-1-1zm9.5 0h-4.3c-.6 0-1 .4-1 1s.4 1 1 1h4.3c.6 0 1-.4 1-1s-.4-1-1-1zm-20-16.8h17.4c.6 0 1-.4 1-1s-.4-1-1-1H39.9c-.6 0-1 .4-1 1s.4 1 1 1zm-5.5-1.9c0-.5-.2-1-.6-1.3s-.8-.6-1.3-.6H19.7c-1 0-1.9.9-1.9 1.9v10.1c0 .5.2 1 .6 1.3.4.4.8.6 1.3.6h12.9c.5 0 1-.2 1.3-.6.4-.4.6-.8.6-1.3zm-12.2 10h-2.4v-2h2.4zm0-4h-2.4v-1.8h2.4zm0-3.8h-2.4v-2h2.4zm5.7 7.8h-3.7v-9.9h3.7zm2-9.9h2.4v2h-2.4zm0 4.1h2.4v1.8h-2.4zm0 5.8v-2h2.4v2z" transform="rotate(-23.356 106.648 -156.042) scale(1.58061)"/></g><g id="y" fill="#e1e6fa"><path d="M40.8 58.7h-1.2V48.3c0-.6-.4-1-1-1s-1 .4-1 1v10.4h-6.7v-8.9c0-.6-.4-1-1-1s-1 .4-1 1v8.9h-6.7v-7.5c0-.6-.4-1-1-1s-1 .4-1 1v7.5h-6.7v-6c0-.6-.4-1-1-1s-1 .4-1 1v6h-1.2c-.6 0-1 .4-1 1s.4 1 1 1h30.5c.6 0 1-.4 1-1s-.5-1-1-1zm-20-27.5c0-.6-.4-1-1-1h-5.1v-5.1c0-.6-.4-1-1-1-3.9 0-7.1 3.2-7.1 7.1s3.2 7.1 7.1 7.1 7.1-3.2 7.1-7.1zm-12.2 0c0-2.5 1.8-4.5 4.1-5v5c0 .6.4 1 1 1h5c-.5 2.3-2.5 4.1-5 4.1-2.8 0-5.1-2.3-5.1-5.1z" transform="rotate(-56.746 316.698 173.119) scale(1.17275)"/><path d="M16.7 29.2h6.1c.6 0 1-.4 1-1 0-3.9-3.2-7.1-7.1-7.1-.6 0-1 .4-1 1v6.1c0 .5.4 1 1 1zm1-6c2 .4 3.6 2 4 4h-4zm25.8-3H27.1c-.6 0-1 .4-1 1s.4 1 1 1h16.3c.6 0 1-.4 1-1s-.4-1-.9-1zm0 5.5H27.1c-.6 0-1 .4-1 1s.4 1 1 1h16.3c.6 0 1-.4 1-1s-.4-1-.9-1zm0 5.5H27.1c-.6 0-1 .4-1 1s.4 1 1 1h16.3c.6 0 1-.4 1-1s-.4-1-.9-1zm0 5.6H27.1c-.6 0-1 .4-1 1s.4 1 1 1h16.3c.6 0 1-.4 1-1s-.4-1-.9-1zM11 48.9c.1.5.6.9 1.2.8l21.5-4.2-.9 1.2c-.3.4-.2 1.1.2 1.4s1.1.2 1.4-.2l2.3-3.2c.3-.4.2-1.1-.2-1.4L33.3 41c-.4-.3-1.1-.2-1.4.2s-.2 1.1.2 1.4l1.3.9-21.7 4.2c-.4.1-.8.6-.7 1.2zm14-39h1c.6 0 1-.4 1-1s-.4-1-1-1h-1c-.6 0-1 .4-1 1s.4 1 1 1z" transform="rotate(-56.746 316.698 173.119) scale(1.17275)"/><path d="M64 34.8l-2.6-.5c-.3-1-.7-2-1.2-2.9l1.5-2.2c.3-.4.2-.9-.1-1.3L58 24.5c-.3-.3-.9-.4-1.3-.1l-2.2 1.5c-.9-.5-1.9-.9-2.9-1.2l-.5-2.6c-.1-.5-.5-.8-1-.8h-1.5V14c0-1.7-1.4-3.1-3.1-3.1H36l-.4-1.8c-.2-1-1.1-1.7-2.1-1.7h-2.2v-.1c0-3.2-2.6-5.8-5.8-5.8s-5.8 2.6-5.8 5.8v.1h-2.1c-1 0-1.9.7-2.1 1.7L15 11H5.3c-1.7 0-3.1 1.4-3.1 3.1v48.4c0 1.7 1.4 3.1 3.1 3.1h40.4c1.7 0 3.1-1.4 3.1-3.1v-7.2h1.5c.5 0 .9-.3 1-.8l.5-2.6c1-.3 2-.7 2.9-1.2l2.2 1.5c.4.3.9.2 1.3-.1l3.5-3.5c.3-.3.4-.9.1-1.3L60.2 45c.5-.9.9-1.9 1.2-2.9l2.6-.5c.5-.1.8-.5.8-1v-5c0-.3-.4-.7-.8-.8zM17.4 9.5c0-.1.1-.1.1-.1h3.1c.6 0 1-.4 1-1V7.3c0-2.1 1.7-3.8 3.8-3.8s3.8 1.7 3.8 3.8v1.1c0 .6.4 1 1 1h3.2c.1 0 .1.1.1.1l.9 4.5v.1l-.1.1H16.6c-.1 0-.1 0-.1-.1V14zm29.4 52.9c0 .6-.5 1.1-1.1 1.1H5.3c-.6 0-1.1-.5-1.1-1.1V14c0-.6.5-1.1 1.1-1.1h9.3l-.1.7c-.1.6 0 1.3.4 1.8s1 .8 1.7.8h17.8c.7 0 1.3-.3 1.7-.8s.6-1.2.4-1.8l-.1-.6h9.3c.6 0 1.1.5 1.1 1.1zm2-30c2.8.5 4.9 2.9 4.9 5.8s-2.1 5.4-4.9 5.8zm14 7.5l-2.4.4c-.4.1-.7.4-.8.8-.3 1.2-.8 2.4-1.4 3.5-.2.3-.2.8 0 1.1l1.4 2-2.4 2.3-2-1.4c-.3-.2-.8-.2-1.1 0-1 .6-2.2 1.1-3.5 1.4-.4.1-.7.4-.8.8l-.4 2.4h-.6V46c3.9-.5 6.9-3.8 6.9-7.9s-3-7.4-6.9-7.9v-7.1h.6l.4 2.4c.1.4.4.7.8.8 1.3.3 2.5.8 3.5 1.4.3.2.8.2 1.1 0l2-1.4 2.4 2.3-1.4 2c-.2.3-.2.8 0 1.1.7 1.1 1.2 2.3 1.5 3.5.1.4.4.7.8.8l2.4.4v3.5z" transform="rotate(-56.746 316.698 173.119) scale(1.17275)"/></g><g id="A" fill="#e1e6fa"><path d="M61.2 41.4h-9.9V2.5c0-.6-.4-1-1-1H5.8c-.6 0-1 .4-1 1V59c0 3.6 2.9 6.5 6.5 6.5h44.4c3.6 0 6.5-2.9 6.5-6.5V42.4c0-.6-.5-1-1-1zM11.3 63.5c-2.5 0-4.5-2-4.5-4.5V3.5h42.4V59c0 1.7.7 3.3 1.8 4.5zM60.2 59c0 2.5-2 4.5-4.5 4.5-1.5 0-2.9-.8-3.7-2-.5-.7-.8-1.6-.8-2.5V43.4h8.9V59z" transform="rotate(-51.34 184.284 21) scale(.94888)"/><path d="M28.7 46.4h-4.9v-1.5c0-.6-.4-1-1-1H17c-.6 0-1 .4-1 1v3.8h-4.9c-.6 0-1 .4-1 1v7.5c0 .6.4 1 1 1h17.7c.6 0 1-.4 1-1v-9.8c-.1-.5-.5-1-1.1-1zM16 56.2h-3.9v-5.5H16zm5.9 0H18V45.9h3.9zm5.8 0h-3.9v-7.8h3.9zM45 45.1H32.9c-.6 0-1 .4-1 1s.4 1 1 1H45c.6 0 1-.4 1-1s-.5-1-1-1zm0 5.4H32.9c-.6 0-1 .4-1 1s.4 1 1 1H45c.6 0 1-.4 1-1s-.5-1-1-1zm0 5.3H32.9c-.6 0-1 .4-1 1s.4 1 1 1H45c.6 0 1-.4 1-1s-.5-1-1-1zM28.5 33.1l6 6c2.4 2.4 6.3 2.4 8.7 0s2.4-6.3 0-8.7l-6-6c1.5-4.6.4-9.9-3.3-13.5-5.2-5.2-13.7-5.2-18.9 0s-5.2 13.7 0 18.9c3.5 3.5 8.7 4.8 13.5 3.3zm13.3-1.3c1.6 1.6 1.6 4.2 0 5.9-1.6 1.6-4.2 1.6-5.9 0l-5.4-5.4c2.4-1.2 4.6-3.4 5.9-5.9zM16.5 12.3c2.2-2.2 5.1-3.3 8-3.3 12.3 0 15.9 17.3 4.2 21.9C17.2 35.5 7.8 21 16.5 12.3z" transform="rotate(-51.34 184.284 21) scale(.94888)"/><path d="M24.5 28.9c4.7 0 8.5-3.8 8.5-8.5s-3.8-8.5-8.5-8.5-8.5 3.8-8.5 8.5 3.8 8.5 8.5 8.5zm1-15c2.8.4 5 2.6 5.4 5.4h-5.4zm-.6 7.5h6c-.5 3.2-3.2 5.5-6.4 5.5-1.4 0-2.7-.4-3.8-1.3zm-1.4-7.5v6l-4.3 4.3c-2.8-3.9-.5-9.5 4.3-10.3z" transform="rotate(-51.34 184.284 21) scale(.94888)"/></g><g id="C" fill="#e1e6fa"><path d="M64.2 48.8l-1.9-.4c-.2-.7-.5-1.4-.9-2.1l1.1-1.6c.3-.4.2-.9-.1-1.3l-2.8-2.8c-.3-.3-.9-.4-1.3-.1l-1.6 1.1c-.6-.3-1.2-.6-1.9-.8V6.4c0-1.7-1.4-3.2-3.2-3.2h-7v-.7c0-.6-.4-1-1-1H24.8c-.6 0-1 .4-1 1v.7h-8.5c-1.7 0-3.2 1.4-3.2 3.2v47.4c0 1.7 1.4 3.2 3.2 3.2h25.9c.1.1.1.1.1.2l-1.1 1.6c-.3.4-.2.9.1 1.3l2.8 2.8c.3.3.9.4 1.3.1l1.6-1.1c.7.4 1.4.6 2.1.9l.3 1.9c.1.5.5.8 1 .8h3.9c.5 0 .9-.3 1-.8l.3-1.9c.7-.2 1.4-.5 2.1-.9l1.6 1.1c.4.3.9.2 1.3-.1l2.8-2.8c.3-.3.4-.9.1-1.3l-1.1-1.6c.4-.7.6-1.4.9-2.1l1.9-.3c.5-.1.8-.5.8-1v-3.9c.1-.6-.3-1-.8-1.1zM42.7 3.5v5.6H25.8V3.5zM14.2 53.8V6.4c0-.6.5-1.2 1.2-1.2h8.5v4.9c0 .6.4 1 1 1h18.8c.6 0 1-.4 1-1V5.2h7c.6 0 1.2.5 1.2 1.2v31.7h-3.5c-.5 0-.9.3-1 .8l-.3 1.9c-.7.2-1.4.5-2.1.9l-1.6-1.1c-.4-.3-.9-.2-1.3.1l-2.8 2.8c-.3.3-.4.9-.1 1.3l1.1 1.6c-.4.7-.7 1.4-.9 2.1l-1.9.4c-.5.1-.8.5-.8 1v3.9c0 .5.3.9.8 1l1.1.2H15.3c-.6 0-1.1-.6-1.1-1.2zm48.9-.9l-1.7.3c-.4.1-.7.4-.8.8-.2.9-.6 1.8-1.1 2.6-.2.4-.2.8 0 1.1l1 1.4-1.6 1.6-1.5-1c-.3-.2-.8-.2-1.1 0-.8.5-1.7.9-2.7 1.1-.4.1-.7.4-.8.8l-.3 1.7h-2.3l-.3-1.7c-.1-.4-.4-.7-.8-.8-1-.2-1.8-.6-2.7-1.1-.3-.2-.8-.2-1.1 0l-1.4 1-1.6-1.6 1-1.4c.2-.3.2-.8 0-1.1-.5-.8-.9-1.7-1.1-2.7-.1-.4-.4-.7-.8-.8l-1.7-.3v-2.3l1.7-.3c.4-.1.7-.4.8-.8.2-.9.6-1.8 1.1-2.7.2-.4.2-.8 0-1.1l-1-1.4 1.6-1.6 1.4 1c.3.2.8.2 1.1 0 .8-.5 1.7-.9 2.7-1.1.4-.1.7-.4.8-.8l.3-1.7h2.3l.3 1.7c.2 1.1 1.3.6 3.5 1.9.3.2.8.2 1.1 0l1.4-1 1.6 1.6-1 1.4c-.2.3-.2.8 0 1.1.5.8.9 1.7 1.1 2.7.1.4.4.7.8.8l1.7.3v2.4z" transform="rotate(22.037 -59.424 104.398) scale(1.01298)"/><path d="M52.8 44.8c-5-1-9.4 3.4-8.4 8.4.5 2.8 2.8 5.1 5.6 5.6 5 1 9.4-3.4 8.4-8.4-.5-2.8-2.8-5.1-5.6-5.6zm-.3 12c-3.8.8-7.1-2.5-6.2-6.2.4-1.9 2-3.4 3.8-3.8 3.8-.8 7.1 2.5 6.2 6.2-.3 1.9-1.9 3.4-3.8 3.8zm-45-39.7H3.9c-1.1 0-2 .9-2 2v39.3c0 .1 0 .2.1.3v.1l2.8 5.7c.2.3.5.6.9.6s.7-.2.9-.6l2.8-5.7v-.1c0-.1.1-.2.1-.3V19.1c-.1-1.1-.9-2-2-2zm-3.6 8.1h3.5v32.1H3.9zm0-6.1h3.5v4.1H3.9zm1.8 42.7l-1.2-2.4h2.3zm20.8-44.4l-3.4 3.4-1.3-1.3c-.4-.4-1-.4-1.4 0s-.4 1 0 1.4l2 2c.2.2.5.3.7.3s.5-.1.7-.3l4.1-4.1c.4-.4.4-1 0-1.4s-1-.4-1.4 0zm0 8.5l-3.4 3.4-1.3-1.3c-.4-.4-1-.4-1.4 0s-.4 1 0 1.4l2 2c.2.2.5.3.7.3s.5-.1.7-.3l4.1-4.1c.4-.4.4-1 0-1.4s-1-.4-1.4 0zm4.7-4.7h14.7c.6 0 1-.4 1-1s-.4-1-1-1H31.2c-.6 0-1 .4-1 1s.4 1 1 1zm15.7 7.5c0-.6-.4-1-1-1H31.2c-.6 0-1 .4-1 1s.4 1 1 1h14.7c.6 0 1-.5 1-1zM28.4 7.3h.8c.6 0 1-.4 1-1s-.4-1-1-1h-.8c-.6 0-1 .4-1 1s.5 1 1 1zm5.5 0h.8c.6 0 1-.4 1-1s-.4-1-1-1h-.8c-.6 0-1 .4-1 1s.4 1 1 1zm5.4 0h.8c.6 0 1-.4 1-1s-.4-1-1-1h-.8c-.6 0-1 .4-1 1s.5 1 1 1z" transform="rotate(22.037 -59.424 104.398) scale(1.01298)"/></g></defs><g fi:class="KUsePattern"><pattern id="b" width="350" height="350" patternUnits="userSpaceOnUse"><use xlink:href="#a" x="-350" y="-350"/><use xlink:href="#a" y="-350"/><use xlink:href="#a" x="350" y="-350"/><use xlink:href="#a" x="-350"/><use xlink:href="#a"/><use xlink:href="#a" x="350"/><use xlink:href="#a" x="-350" y="350"/><use xlink:href="#a" y="350"/><use xlink:href="#a" x="350" y="350"/></pattern><rect width="100%" height="100%" fill="url(#b)"/></g><g fi:class="KUsePattern"><pattern id="d" width="350" height="350" patternUnits="userSpaceOnUse"><use xlink:href="#c" x="-350" y="-350"/><use xlink:href="#c" y="-350"/><use xlink:href="#c" x="350" y="-350"/><use xlink:href="#c" x="-350"/><use xlink:href="#c"/><use xlink:href="#c" x="350"/><use xlink:href="#c" x="-350" y="350"/><use xlink:href="#c" y="350"/><use xlink:href="#c" x="350" y="350"/></pattern><rect width="100%" height="100%" fill="url(#d)"/></g><g fi:class="KUsePattern"><pattern id="f" width="350" height="350" patternUnits="userSpaceOnUse"><use xlink:href="#e" x="-350" y="-350"/><use xlink:href="#e" y="-350"/><use xlink:href="#e" x="350" y="-350"/><use xlink:href="#e" x="-350"/><use xlink:href="#e"/><use xlink:href="#e" x="350"/><use xlink:href="#e" x="-350" y="350"/><use xlink:href="#e" y="350"/><use xlink:href="#e" x="350" y="350"/></pattern><rect width="100%" height="100%" fill="url(#f)"/></g><g fi:class="KUsePattern"><pattern id="h" width="350" height="350" patternUnits="userSpaceOnUse"><use xlink:href="#g" x="-350" y="-350"/><use xlink:href="#g" y="-350"/><use xlink:href="#g" x="350" y="-350"/><use xlink:href="#g" x="-350"/><use xlink:href="#g"/><use xlink:href="#g" x="350"/><use xlink:href="#g" x="-350" y="350"/><use xlink:href="#g" y="350"/><use xlink:href="#g" x="350" y="350"/></pattern><rect width="100%" height="100%" fill="url(#h)"/></g><g fi:class="KUsePattern"><pattern id="j" width="350" height="350" patternUnits="userSpaceOnUse"><use xlink:href="#i" x="-350" y="-350"/><use xlink:href="#i" y="-350"/><use xlink:href="#i" x="350" y="-350"/><use xlink:href="#i" x="-350"/><use xlink:href="#i"/><use xlink:href="#i" x="350"/><use xlink:href="#i" x="-350" y="350"/><use xlink:href="#i" y="350"/><use xlink:href="#i" x="350" y="350"/></pattern><rect width="100%" height="100%" fill="url(#j)"/></g><g fi:class="KUsePattern"><pattern id="l" width="350" height="350" patternUnits="userSpaceOnUse"><use xlink:href="#k" x="-350" y="-350"/><use xlink:href="#k" y="-350"/><use xlink:href="#k" x="350" y="-350"/><use xlink:href="#k" x="-350"/><use xlink:href="#k"/><use xlink:href="#k" x="350"/><use xlink:href="#k" x="-350" y="350"/><use xlink:href="#k" y="350"/><use xlink:href="#k" x="350" y="350"/></pattern><rect width="100%" height="100%" fill="url(#l)"/></g><g fi:class="KUsePattern"><pattern id="n" width="350" height="350" patternUnits="userSpaceOnUse"><use xlink:href="#m" x="-350" y="-350"/><use xlink:href="#m" y="-350"/><use xlink:href="#m" x="350" y="-350"/><use xlink:href="#m" x="-350"/><use xlink:href="#m"/><use xlink:href="#m" x="350"/><use xlink:href="#m" x="-350" y="350"/><use xlink:href="#m" y="350"/><use xlink:href="#m" x="350" y="350"/></pattern><rect width="100%" height="100%" fill="url(#n)"/></g><g fi:class="KUsePattern"><pattern id="p" width="350" height="350" patternUnits="userSpaceOnUse"><use xlink:href="#o" x="-350" y="-350"/><use xlink:href="#o" y="-350"/><use xlink:href="#o" x="350" y="-350"/><use xlink:href="#o" x="-350"/><use xlink:href="#o"/><use xlink:href="#o" x="350"/><use xlink:href="#o" x="-350" y="350"/><use xlink:href="#o" y="350"/><use xlink:href="#o" x="350" y="350"/></pattern><rect width="100%" height="100%" fill="url(#p)"/></g><g fi:class="KUsePattern"><pattern id="r" width="350" height="350" patternUnits="userSpaceOnUse"><use xlink:href="#q" x="-350" y="-350"/><use xlink:href="#q" y="-350"/><use xlink:href="#q" x="350" y="-350"/><use xlink:href="#q" x="-350"/><use xlink:href="#q"/><use xlink:href="#q" x="350"/><use xlink:href="#q" x="-350" y="350"/><use xlink:href="#q" y="350"/><use xlink:href="#q" x="350" y="350"/></pattern><rect width="100%" height="100%" fill="url(#r)"/></g><g fi:class="KUsePattern"><pattern id="t" width="350" height="350" patternUnits="userSpaceOnUse"><use xlink:href="#s" x="-350" y="-350"/><use xlink:href="#s" y="-350"/><use xlink:href="#s" x="350" y="-350"/><use xlink:href="#s" x="-350"/><use xlink:href="#s"/><use xlink:href="#s" x="350"/><use xlink:href="#s" x="-350" y="350"/><use xlink:href="#s" y="350"/><use xlink:href="#s" x="350" y="350"/></pattern><rect width="100%" height="100%" fill="url(#t)"/></g><g fi:class="KUsePattern"><pattern id="v" width="350" height="350" patternUnits="userSpaceOnUse"><use xlink:href="#u" x="-350" y="-350"/><use xlink:href="#u" y="-350"/><use xlink:href="#u" x="350" y="-350"/><use xlink:href="#u" x="-350"/><use xlink:href="#u"/><use xlink:href="#u" x="350"/><use xlink:href="#u" x="-350" y="350"/><use xlink:href="#u" y="350"/><use xlink:href="#u" x="350" y="350"/></pattern><rect width="100%" height="100%" fill="url(#v)"/></g><g fi:class="KUsePattern"><pattern id="x" width="350" height="350" patternUnits="userSpaceOnUse"><use xlink:href="#w" x="-350" y="-350"/><use xlink:href="#w" y="-350"/><use xlink:href="#w" x="350" y="-350"/><use xlink:href="#w" x="-350"/><use xlink:href="#w"/><use xlink:href="#w" x="350"/><use xlink:href="#w" x="-350" y="350"/><use xlink:href="#w" y="350"/><use xlink:href="#w" x="350" y="350"/></pattern><rect width="100%" height="100%" fill="url(#x)"/></g><g fi:class="KUsePattern"><pattern id="z" width="350" height="350" patternUnits="userSpaceOnUse"><use xlink:href="#y" x="-350" y="-350"/><use xlink:href="#y" y="-350"/><use xlink:href="#y" x="350" y="-350"/><use xlink:href="#y" x="-350"/><use xlink:href="#y"/><use xlink:href="#y" x="350"/><use xlink:href="#y" x="-350" y="350"/><use xlink:href="#y" y="350"/><use xlink:href="#y" x="350" y="350"/></pattern><rect width="100%" height="100%" fill="url(#z)"/></g><g fi:class="KUsePattern"><pattern id="B" width="350" height="350" patternUnits="userSpaceOnUse"><use xlink:href="#A" x="-350" y="-350"/><use xlink:href="#A" y="-350"/><use xlink:href="#A" x="350" y="-350"/><use xlink:href="#A" x="-350"/><use xlink:href="#A"/><use xlink:href="#A" x="350"/><use xlink:href="#A" x="-350" y="350"/><use xlink:href="#A" y="350"/><use xlink:href="#A" x="350" y="350"/></pattern><rect width="100%" height="100%" fill="url(#B)"/></g><g fi:class="KUsePattern"><pattern id="D" width="350" height="350" patternUnits="userSpaceOnUse"><use xlink:href="#C" x="-350" y="-350"/><use xlink:href="#C" y="-350"/><use xlink:href="#C" x="350" y="-350"/><use xlink:href="#C" x="-350"/><use xlink:href="#C"/><use xlink:href="#C" x="350"/><use xlink:href="#C" x="-350" y="350"/><use xlink:href="#C" y="350"/><use xlink:href="#C" x="350" y="350"/></pattern><rect width="100%" height="100%" fill="url(#D)"/></g></svg>