<svg xmlns="http://www.w3.org/2000/svg" style="opacity: 0.2;" xmlns:xlink="http://www.w3.org/1999/xlink" xmlns:fi="http://pattern.flaticon.com/" x="0" y="0" width="3840" height="2160" viewBox="0 0 3840 2160"><rect x="0px" y="0px" width="100%" height="100%" opacity="1" fill="#ffffff"/><defs><g transform="matrix(0.15486395529951927 -0.11118437258688904 0.11118437258688904 0.15486395529951927 144.53891815790325 241.38204949913782)" id="L1_26"><path d="M171.04,283.92H140.6v-0.16c-0.027,0-0.054,0-0.08,0c-4.418,0.044-7.964,3.662-7.92,8.08v30.52c0,4.418,3.582,8,8,8     h30.44c4.418,0,8-3.582,8-8v-30.44C179.04,287.502,175.458,283.92,171.04,283.92z M163,314.24h-14.32v-14.32H163L163,314.24z" fill="#e1e6fa"/><path d="M111.32,219.36H80.88v-0.16c-0.027,0-0.054,0-0.08,0c-4.418,0.044-7.964,3.662-7.92,8.08v30.48c0,4.418,3.582,8,8,8     h30.44c4.418,0,8-3.582,8-8v-30.4C119.32,222.942,115.738,219.36,111.32,219.36z M103.28,249.68H88.96v-14.32h14.32V249.68z" fill="#e1e6fa"/><path d="M80.84,154.68c-4.418,0.022-7.982,3.622-7.96,8.04v30.64c0,4.418,3.582,8,8,8h30.4c4.418,0,8-3.582,8-8v-30.4     c0-4.418-3.582-8-8-8H80.84l0.04-0.28C80.867,154.68,80.853,154.68,80.84,154.68z M88.96,170.96h14.28l0.04,14.32H88.96V170.96z" fill="#e1e6fa"/><path d="M111.32,283.92H80.88v-0.16c-0.027,0-0.054,0-0.08,0c-4.418,0.044-7.964,3.662-7.92,8.08v30.52c0,4.418,3.582,8,8,8     h30.44c4.418,0,8-3.582,8-8v-30.44C119.32,287.502,115.738,283.92,111.32,283.92z M103.28,314.24H88.96v-14.32h14.32V314.24z" fill="#e1e6fa"/><path d="M230.76,219.36h-30.44l0.04-0.16c-0.027,0-0.054,0-0.08,0c-4.418,0.044-7.964,3.662-7.92,8.08v30.48c0,4.418,3.582,8,8,8     h30.4c4.418,0,8-3.582,8-8v-30.4C238.76,222.942,235.178,219.36,230.76,219.36z M222.72,249.68H208.4v-14.32h14.32V249.68z" fill="#e1e6fa"/><path d="M302,51.6H92.6l0.04-0.12c-5.54-0.007-10.874,2.095-14.92,5.88l-0.4,0.52c-4.11,4.102-6.413,9.674-6.4,15.48v34.44     c0.008,5.779,2.31,11.318,6.4,15.4c4.063,4.071,9.569,6.371,15.32,6.4h209.24c5.793,0.003,11.348-2.3,15.44-6.4     c4.159-4.066,6.52-9.624,6.56-15.44v-34.4C323.792,61.332,314.028,51.622,302,51.6z M307.64,107.72     c0.002,1.497-0.587,2.935-1.64,4c-1.058,1.067-2.497,1.671-4,1.68H92.56c-1.497,0.002-2.935-0.587-4-1.64     c-1.053-1.065-1.642-2.503-1.64-4V73.28c0.009-1.503,0.613-2.941,1.68-4L88.88,69c1.041-0.909,2.378-1.406,3.76-1.4H302     l-0.08,0.04c3.15,0.022,5.698,2.57,5.72,5.72V107.72z" fill="#e1e6fa"/><path d="M313.32,154.8h-50.48l-0.12-0.12c-0.013,0-0.027,0-0.04,0c-4.418,0.022-7.982,3.622-7.96,8.04v30.64c0,4.418,3.582,8,8,8     h50.6c4.418,0,8-3.582,8-8V162.8C321.32,158.382,317.738,154.8,313.32,154.8z M305.32,185.12h-34.56V170.8h34.56V185.12z" fill="#e1e6fa"/><path d="M313.32,219.36h-50.48l-0.12-0.16c-0.027,0-0.054,0-0.08,0c-4.418,0.044-7.964,3.662-7.92,8.08v30.48     c0,4.418,3.582,8,8,8h50.6c4.418,0,8-3.582,8-8v-30.4C321.32,222.942,317.738,219.36,313.32,219.36z M305.32,249.68h-34.56     v-14.32h34.56V249.68z" fill="#e1e6fa"/><path d="M345.44,8.8c-5.591-5.623-13.19-8.789-21.12-8.8h-254c-7.888,0.042-15.438,3.206-21,8.8     c-5.652,5.578-8.848,13.179-8.88,21.12v334.84c0.011,7.91,3.161,15.492,8.76,21.08c5.591,5.623,13.19,8.789,21.12,8.8h254     c7.91-0.011,15.492-3.161,21.08-8.76c5.623-5.591,8.789-13.19,8.8-21.12V29.88C354.189,21.97,351.039,14.388,345.44,8.8z      M338.04,364.76c0.01,3.643-1.429,7.139-4,9.72c-2.581,2.571-6.078,4.01-9.72,4h-254c-3.643,0.01-7.139-1.429-9.72-4     c-2.571-2.581-4.01-6.077-4-9.72V29.88c-0.01-3.643,1.429-7.139,4-9.72c2.581-2.571,6.077-4.01,9.72-4h254     c3.648,0.001,7.146,1.455,9.72,4.04c2.571,2.581,4.01,6.078,4,9.72V364.76z" fill="#e1e6fa"/><path d="M200.32,154.68c-4.418,0.022-7.982,3.622-7.96,8.04v30.64c0,4.418,3.582,8,8,8h30.36c4.418,0,8-3.582,8-8v-30.4     c0-4.418-3.582-8-8-8h-30.44l0.08-0.28C200.347,154.68,200.333,154.68,200.32,154.68z M208.4,170.96h14.28l0.04,14.32H208.4     V170.96z" fill="#e1e6fa"/><path d="M140.56,154.68c-4.418,0.022-7.982,3.622-7.96,8.04v30.64c0,4.418,3.582,8,8,8H171c4.418,0,8-3.582,8-8v-30.4     c0-4.418-3.582-8-8-8h-30.44l0.04-0.28C140.587,154.68,140.573,154.68,140.56,154.68z M148.68,170.96h14.28l0.04,14.32h-14.32     V170.96z" fill="#e1e6fa"/><path d="M313.32,283.92h-50.48l-0.12-0.16c-0.027,0-0.054,0-0.08,0c-4.418,0.044-7.964,3.662-7.92,8.08v30.52     c0,4.418,3.582,8,8,8h50.6c4.418,0,8-3.582,8-8v-30.44C321.32,287.502,317.738,283.92,313.32,283.92z M305.32,314.24h-34.56     v-14.32h34.56V314.24z" fill="#e1e6fa"/><path d="M230.76,283.92h-30.44l0.04-0.16c-0.027,0-0.054,0-0.08,0c-4.418,0.044-7.964,3.662-7.92,8.08v30.52c0,4.418,3.582,8,8,8     h30.4c4.418,0,8-3.582,8-8v-30.44C238.76,287.502,235.178,283.92,230.76,283.92z M222.72,314.24H208.4v-14.32h14.32V314.24z" fill="#e1e6fa"/><path d="M171.04,219.36H140.6v-0.16c-0.027,0-0.054,0-0.08,0c-4.418,0.044-7.964,3.662-7.92,8.08v30.48c0,4.418,3.582,8,8,8     h30.44c4.418,0,8-3.582,8-8v-30.4C179.04,222.942,175.458,219.36,171.04,219.36z M163,249.68h-14.32v-14.32H163L163,249.68z" fill="#e1e6fa"/></g><g transform="matrix(0.2165903002023697 0 0 0.2165903002023697 187.31265846000133 299.2784386892429)" id="L1_27"><path d="M404.96,212.62h-182.8c-4.418,0-8,3.582-8,8v182.72c0,0.027,0,0.054,0,0.08c0,4.418,3.582,8,8,8     c105.376,0,190.8-85.424,190.8-190.8C412.96,216.202,409.378,212.62,404.96,212.62z M230.16,395.1V228.74h166.36     C392.341,318.83,320.25,390.921,230.16,395.1z" fill="#e1e6fa"/><path d="M381.6,192.34c0-105.376-85.424-190.8-190.8-190.8S0,86.964,0,192.34s85.424,190.8,190.8,190.8c4.418,0,8-3.582,8-8     V200.5l174.8-0.16C378.018,200.34,381.6,196.758,381.6,192.34z M190.8,184.38c-4.418,0-8,3.582-8,8v174.48l-0.08,0.04     c-90.111-4.167-162.221-76.276-166.387-166.387C11.878,104.165,86.372,22.448,182.72,17.993S360.785,88.032,365.24,184.38H190.8z     " fill="#e1e6fa"/></g><g transform="matrix(0.10968950658705948 -0.15356530937534907 0.15356530937534907 0.10968950658705948 -45.270740606566136 154.50971178405274)" id="L1_28"><circle cx="245" cy="252" r="13" fill="#e1e6fa"/><path d="M383.36,207.52c-3.917-3.941-9.244-6.158-14.8-6.16h-5.8v-73.12c-0.044-25.506-20.734-46.16-46.24-46.16h-24.64v-44    c-0.044-19.665-15.975-35.596-35.64-35.64H121.72c-19.665,0.044-35.596,15.975-35.64,35.64v44H67.12    c-24.152,0.078-44.184,18.716-46,42.8c-2.727,1.77-5.261,3.821-7.56,6.12C4.884,139.63,0.004,151.362,0,163.6v177.28    c0.066,25.444,20.676,46.054,46.12,46.12h249.44c24.167-0.079,44.204-18.74,46-42.84c5.746-3.751,10.594-8.722,14.2-14.56    c4.472-7.208,6.854-15.517,6.88-24v-2.4h5.92c5.523-0.013,10.816-2.214,14.72-6.12c3.931-3.907,6.147-9.217,6.16-14.76v-60    C389.459,216.775,387.271,211.45,383.36,207.52z M291.88,98.24h24.64c7.948,0.015,15.563,3.196,21.16,8.84    c5.629,5.603,8.796,13.217,8.8,21.16v73.12h-4.84V163.6c-0.066-25.428-20.652-46.032-46.08-46.12h-3.68V98.24z M102.24,37.92    c0.044-10.74,8.74-19.436,19.48-19.48h134.52c10.74,0.044,19.436,8.74,19.48,19.48v79.56h-12.64v-58c0-4.418-3.582-8-8-8    c-6.132-0.022-11.098-4.988-11.12-11.12c0-4.418-3.582-8-8-8h-93.8c-4.418,0-8,3.582-8,8c-0.087,6.185-5.172,11.128-11.357,11.041    c-0.014,0-0.029,0-0.043-0.001c-4.418,0-8,3.582-8,8v58h-12.52V37.92z M246.76,66.32v51.16h-116V66.32    c8.56-2.695,15.265-9.4,17.96-17.96h80C231.431,56.939,238.169,63.648,246.76,66.32z M45.96,107.08    c5.603-5.629,13.217-8.796,21.16-8.8h18.96v19.24h-40h-3.76c-1.16,0-2.32,0.24-3.44,0.4    C40.427,113.837,42.843,110.138,45.96,107.08z M325.56,340.88c-0.066,16.519-13.441,29.894-29.96,29.96H46.12    c-16.519-0.066-29.894-13.441-29.96-29.96V163.6c0.004-7.943,3.171-15.557,8.8-21.16c4.727-4.892,11.032-7.952,17.8-8.64    c0.84,0,2.56,0,3.44,0h249.36c16.519,0.066,29.894,13.441,29.96,29.96v37.76h-83.36c-28.538,0.469-51.293,23.983-50.825,52.521    c0.005,0.32,0.013,0.639,0.025,0.959c0,26.2,19.64,48.24,50.8,48.24h83.36l0.04,36.24V340.88z M346.52,305.52    c0.014,5.521-1.509,10.937-4.4,15.64l-0.4,0.64v-18.72h4.84L346.52,305.52z M373.36,282.2c0.008,1.255-0.481,2.463-1.36,3.36    c-0.897,0.879-2.104,1.367-3.36,1.36H242.16c-13.56,0-34.68-6.08-34.68-36c0-23.68,21.44-33.36,34.68-33.36H368.6    c2.62,0.022,4.738,2.14,4.76,4.76L373.36,282.2z" fill="#e1e6fa"/></g><g transform="matrix(0.18208880644769368 0.09711402986699906 -0.09711402986699906 0.18208880644769368 311.4655595009181 -18.326799991170176)" id="L1_29"><circle cx="245" cy="212" r="13" fill="#e1e6fa"/><path d="M368.32,161.48h-5.92l0.36-73.16c-0.044-25.506-20.734-46.16-46.24-46.16H67.12c-24.152,0.078-44.184,18.716-46,42.8     c-2.727,1.77-5.261,3.822-7.56,6.12C4.884,99.71,0.004,111.442,0,123.68v177.28c0.066,25.444,20.676,46.054,46.12,46.12h249.56     c24.167-0.079,44.204-18.74,46-42.84c5.746-3.751,10.594-8.722,14.2-14.56c4.472-7.208,6.854-15.517,6.88-24v-2.4h5.6     c5.523-0.013,10.816-2.214,14.72-6.12c3.931-3.907,6.147-9.217,6.16-14.76v-60C389.218,170.855,379.865,161.502,368.32,161.48z      M67.12,58.36h249.44c16.519,0.066,29.894,13.441,29.96,29.96v73.12h-4.84v-37.76c-0.066-25.444-20.676-46.054-46.12-46.12H46.12     l-3.56,0.2c-1.16,0.04-2.32,0.4-3.44,0.4C43.428,66.38,54.577,58.495,67.12,58.36z M325.52,300.96     c-0.066,16.519-13.441,29.894-29.96,29.96H46.12c-16.519-0.066-29.894-13.441-29.96-29.96V123.8     c0.004-7.943,3.171-15.557,8.8-21.16c4.664-4.978,10.943-8.139,17.72-8.92c0.88,0,2.6,0,3.44,0h249.44     c16.519,0.066,29.894,13.441,29.96,29.96v37.8h-83.36c-0.32,0.005-0.639,0.013-0.959,0.025     c-28.525,0.998-50.839,24.931-49.841,53.455c0,26.2,19.64,48.24,50.8,48.24h83.36V300.96z M346.36,265.6     c0.014,5.521-1.509,10.937-4.4,15.64l-0.4,0.64V263.2h4.84L346.36,265.6z M373.2,242.48c0.008,1.255-0.481,2.463-1.36,3.36     c-0.897,0.879-2.104,1.367-3.36,1.36h-34.96l-91.36-0.12c-13.56,0-34.68-6-34.68-36c0-23.68,21.44-33.36,34.68-33.36h126.28     c2.62,0.022,4.738,2.14,4.76,4.76V242.48z" fill="#e1e6fa"/></g><g transform="matrix(0.1175805298691311 -0.1175805298691311 0.1175805298691311 0.1175805298691311 91.79198163606915 194.9999988824129)" id="L1_30"><path d="M301.96,314.46h55.52c10.44-0.022,18.898-8.48,18.92-18.92V96.42c-0.022-10.44-8.48-18.898-18.92-18.92h-55.52v0     c-10.44,0.022-18.898,8.48-18.92,18.92v199.12C283.062,305.98,291.52,314.438,301.96,314.46z M299.16,96.38     c0.022-1.531,1.269-2.76,2.8-2.76h55.52v0.04c1.515,0.021,2.739,1.245,2.76,2.76v199.12c0,1.531-1.229,2.778-2.76,2.8h-55.52     c-1.546,0-2.8-1.254-2.8-2.8V96.38z" fill="#e1e6fa"/><path d="M182.76,314.46h55.44c10.44-0.022,18.898-8.48,18.92-18.92V132.3c-0.152-10.315-8.524-18.616-18.84-18.68h-55.52l0-0.24     c-10.44,0.022-18.898,8.48-18.92,18.92v163.24C163.862,305.98,172.32,314.438,182.76,314.46z M179.96,132.38     c0.022-1.531,1.269-2.76,2.8-2.76h55.52l0-0.08c1.515,0.021,2.738,1.245,2.76,2.76v163.24c0,1.531-1.229,2.778-2.76,2.8h-55.52     c-1.546,0-2.8-1.254-2.8-2.8V132.38z" fill="#e1e6fa"/><path d="M402,340.9H16V61.1c0-4.418-3.582-8-8-8s-8,3.582-8,8l0.08,287.8c0,4.418,3.582,8,8,8H402c4.418,0,8-3.582,8-8     S406.418,340.9,402,340.9z" fill="#e1e6fa"/><path d="M63.56,314.46h55.52c10.44-0.022,18.898-8.48,18.92-18.92v-128.6c-0.022-10.44-8.48-18.898-18.92-18.92H63.56v-0.16     c-10.44,0.022-18.898,8.48-18.92,18.92v128.76C44.662,305.98,53.12,314.438,63.56,314.46z M60.8,166.78     c0.021-1.515,1.245-2.739,2.76-2.76h55.52c1.515,0.021,2.738,1.245,2.76,2.76v128.76c0,1.531-1.229,2.778-2.76,2.8H63.56     c-1.531-0.022-2.76-1.269-2.76-2.8V166.78z" fill="#e1e6fa"/></g><g transform="matrix(0.16279912499319613 -0.16279912499319613 0.16279912499319613 0.16279912499319613 133.3817369040088 134.20271056800698)" id="L1_31"><path d="m175.902344 352h-64c-22.089844 0-40-17.910156-40-40v-16c0-22.089844 17.910156-40 40-40h64c22.09375 0 40 17.910156 40 40v16c0 4.417969-3.582032 8-8 8-4.417969 0-8-3.582031-8-8v-16c0-13.253906-10.746094-24-24-24h-64c-13.253906 0-24 10.746094-24 24v16c0 13.253906 10.746094 24 24 24h64c4.417968 0 8 3.582031 8 8s-3.582032 8-8 8zm0 0" fill="#e1e6fa"/><path d="m175.902344 304c0 4.417969-3.582032 8-8 8-4.417969 0-8-3.582031-8-8s3.582031-8 8-8c4.417968 0 8 3.582031 8 8zm0 0" fill="#e1e6fa"/><path d="m127.902344 304c0 4.417969-3.582032 8-8 8-4.417969 0-8-3.582031-8-8s3.582031-8 8-8c4.417968 0 8 3.582031 8 8zm0 0" fill="#e1e6fa"/><path d="m207.902344 224c0 4.417969-3.582032 8-8 8-4.417969 0-8-3.582031-8-8s3.582031-8 8-8c4.417968 0 8 3.582031 8 8zm0 0" fill="#e1e6fa"/><path d="m199.902344 236c-6.625 0-12-5.371094-12-12s5.375-12 12-12c6.628906 0 12 5.371094 12 12s-5.371094 12-12 12zm0-16c-2.207032 0-4 1.789062-4 4s1.792968 4 4 4c2.210937 0 4-1.789062 4-4s-1.789063-4-4-4zm0 0" fill="#e1e6fa"/><path d="m95.902344 224c0 4.417969-3.582032 8-8 8-4.417969 0-8-3.582031-8-8s3.582031-8 8-8c4.417968 0 8 3.582031 8 8zm0 0" fill="#e1e6fa"/><path d="m87.902344 236c-6.625 0-12-5.371094-12-12s5.375-12 12-12c6.628906 0 12 5.371094 12 12s-5.371094 12-12 12zm0-16c-2.207032 0-4 1.789062-4 4s1.792968 4 4 4c2.210937 0 4-1.789062 4-4s-1.789063-4-4-4zm0 0" fill="#e1e6fa"/><path d="m143.902344 136c-22.089844 0-40-17.910156-40-40s17.910156-40 40-40c22.09375 0 40 17.910156 40 40s-17.90625 40-40 40zm0-64c-13.253906 0-24 10.746094-24 24s10.746094 24 24 24 24-10.746094 24-24-10.746094-24-24-24zm0 0" fill="#e1e6fa"/><path d="m143.902344 40c-4.417969 0-8-3.582031-8-8v-16c0-4.417969 3.582031-8 8-8 4.417968 0 8 3.582031 8 8v16c0 4.417969-3.582032 8-8 8zm0 0" fill="#e1e6fa"/><path d="m111.902344 40c-4.417969 0-8-3.582031-8-8v-24c0-4.417969 3.582031-8 8-8 4.417968 0 8 3.582031 8 8v24c0 4.417969-3.582032 8-8 8zm0 0" fill="#e1e6fa"/><path d="m175.902344 48c-4.417969 0-8-3.582031-8-8v-32c0-4.417969 3.582031-8 8-8 4.417968 0 8 3.582031 8 8v32c0 4.417969-3.582032 8-8 8zm0 0" fill="#e1e6fa"/><path d="m223.902344 480h-32c-13.253906 0-24-10.746094-24-24 0-4.417969 3.582031-8 8-8 4.417968 0 8 3.582031 8 8s3.582031 8 8 8h32c4.417968 0 8-3.582031 8-8v-64c-.011719-2.125.824218-4.171875 2.320312-5.679688 48.644532-48.601562 50.199219-126.949218 3.519532-177.441406-2.121094-2.472656-2.53125-5.984375-1.039063-8.878906l16-27.761719c6.628906-11.484375 2.6875-26.171875-8.800781-32.796875-11.488282-6.628906-26.171875-2.6875-32.800782 8.796875l-14 24c-1.941406 3.371094-6.023437 4.859375-9.679687 3.523438-6.808594-2.492188-13.824219-4.390625-20.957031-5.683594-4.417969-.792969-7.355469-5.019531-6.5625-9.4375.796875-4.417969 5.023437-7.355469 9.441406-6.5625 5.8125 1.066406 11.558594 2.480469 17.199219 4.242187l10.71875-18.558593c11.121093-18.96875 35.46875-25.40625 54.507812-14.414063 19.042969 10.996094 25.640625 35.296875 14.773438 54.414063l-13.121094 22.71875c48.023437 56.238281 45.640625 139.714843-5.519531 193.121093v60.398438c0 13.253906-10.746094 24-24 24zm0 0" fill="#e1e6fa"/><path d="m143.902344 440c-11.402344-.066406-22.757813-1.460938-33.839844-4.160156-2.117188-.4375-3.964844-1.714844-5.125-3.539063s-1.53125-4.039062-1.035156-6.140625c1.066406-4.246094 5.34375-6.847656 9.601562-5.839844 19.808594 4.878907 40.507813 4.878907 60.320313 0 4.257812-1.007812 8.535156 1.59375 9.597656 5.839844.507813 2.070313.164063 4.253906-.945313 6.070313-1.113281 1.816406-2.902343 3.117187-4.972656 3.609375-11.003906 2.679687-22.277344 4.074218-33.601562 4.160156zm0 0" fill="#e1e6fa"/><path d="m95.902344 480h-32c-13.253906 0-24-10.746094-24-24v-60.398438c-51.011719-53.371093-53.398438-136.679687-5.519532-192.882812l-13.121093-22.71875c-10.867188-19.113281-4.269531-43.417969 14.773437-54.410156 19.042969-10.996094 43.386719-4.558594 54.507813 14.410156l10.71875 18.558594c5.644531-1.757813 11.386719-3.175782 17.203125-4.238282 4.417968-.796874 8.644531 2.140626 9.4375 6.558594.796875 4.417969-2.140625 8.644532-6.558594 9.441406-7.136719 1.289063-14.148438 3.191407-20.960938 5.679688-3.652343 1.335938-7.738281-.148438-9.679687-3.519531l-14-24c-6.628906-11.488281-21.3125-15.429688-32.800781-8.800781-11.488282 6.628906-15.425782 21.3125-8.800782 32.800781l16 27.757812c1.761719 3.035157 1.339844 6.863281-1.039062 9.441407-46.675781 50.492187-45.121094 128.839843 3.519531 177.441406 1.316407 1.308594 2.136719 3.03125 2.320313 4.878906v64c0 4.417969 3.582031 8 8 8h32c4.417968 0 8-3.582031 8-8s3.582031-8 8-8c4.417968 0 8 3.582031 8 8 0 13.253906-10.746094 24-24 24zm0 0" fill="#e1e6fa"/></g><g transform="matrix(0.9014395776430033 -0.9014395776430033 0.9014395776430033 0.9014395776430033 218.61419470316562 96.37741251531158)" id="L1_36"><path d="m17.6 18.3-1.9 1.7c1.9 1.3 4 2 6.3 2.2v1.5h1.6v-1.4c2.8-.1 5.8-1.3 5.8-4 0-1.2-.5-2.1-1.4-2.7s-2.4-1.1-4.4-1.5h-.1v-3.8c1.3.1 2.6.5 3.7 1.2l1.8-1.9c-1.7-.9-3.5-1.4-5.4-1.5v-1h-1.6v1c-1.7.1-3 .5-4.1 1.2-1 .7-1.6 1.7-1.6 2.8 0 1.2.5 2 1.4 2.6s2.3 1.1 4.3 1.4v3.9c-1.5-.2-3-.8-4.4-1.7zm6.1-1.8c1 .2 1.7.5 2.1.8s.6.6.6 1.1-.2.9-.7 1.2-1.1.5-2 .6zm-3.6-3.6c-.3-.3-.5-.6-.5-1.1 0-.4.2-.8.7-1.1.4-.3 1-.5 1.8-.5v3.5c-1.1-.3-1.7-.5-2-.8z" fill="#e1e6fa"/><path d="m50.4 46.5-.1-4.9c1.3.2 2.6.7 3.7 1.5l1.7-2.4c-1.7-1.2-3.5-1.8-5.4-2v-1.3h-1.7v1.3c-1.7.1-3.1.6-4.1 1.6-1.1 1-1.6 2.2-1.6 3.7s.5 2.6 1.4 3.4 2.4 1.4 4.3 1.9v5.1c-1.5-.2-3.1-1-4.5-2.3l-1.9 2.3c1.9 1.7 4 2.6 6.4 2.8v1.8h1.7v-1.9c1.8-.1 3.2-.6 4.3-1.6s1.6-2.2 1.6-3.7-.5-2.7-1.4-3.5c-.9-.7-2.4-1.4-4.4-1.8zm-1.7-.5c-1-.3-1.6-.6-2-1-.3-.3-.5-.8-.5-1.4s.2-1.1.7-1.5c.4-.4 1.1-.6 1.8-.7zm3.6 7.6c-.5.4-1.1.6-2 .7v-4.7c1 .3 1.8.6 2.1 1 .4.4.6.8.6 1.4.1.7-.2 1.2-.7 1.6z" fill="#e1e6fa"/><path d="m49.3 31.9c-2 0-3.9.4-5.7 1-.1-1.4-.5-2.7-1.3-4 .9-1.4 1.4-2.9 1.4-4.6 0-1.6-.5-3.1-1.4-4.5.9-1.4 1.4-2.9 1.4-4.5 0-7.1-9.5-12.8-21.1-12.8-14.4 0-25 8.8-19.7 17.3-.9 1.4-1.4 3-1.4 4.5 0 1.7.5 3.2 1.4 4.7-1.8 2.9-1.9 6 0 9-1.8 2.9-1.9 6.1 0 9.1-.9 1.4-1.4 3-1.4 4.5 0 7.1 9.5 12.8 21.1 12.8 6.1 0 11.7-1.6 15.7-4.3 2.9 2.6 6.7 4.3 10.9 4.3 9 0 16.2-7.3 16.2-16.2s-7.2-16.3-16.1-16.3zm-26.7-27.3c10.5 0 19.1 4.8 19.1 10.8 0 3.1-2.4 5.7-5.1 7.3 0 0-.1 0-.1.1-12.1 7.3-32.9 2-32.9-7.4-.1-6 8.5-10.8 19-10.8zm-18.4 17c7.9 8.7 28.9 8.7 36.8 0 6.2 12.8-27.2 19.4-36.1 6.8 0 0 0 0-.1-.1-.8-1.2-1.3-2.5-1.3-3.9 0-.9.2-1.9.7-2.8zm0 9.1c8 8.7 29 8.7 36.8 0 .4.9.7 1.8.7 2.8 0 .1 0 .2.1.3-3.4 1.8-6 4.7-7.5 8.2-4.7 1.7-9.1 2.8-15.7 2-8.2-.9-17.9-6.3-14.4-13.3zm0 9.1c6.4 7 20.3 8 29.3 4.7-.5 2.3-.6 4.6-.1 7-14.2 5.5-34-2-29.2-11.7zm18.4 22.6c-10.5 0-19.1-4.8-19.1-10.8 0-1 .2-1.9.7-2.8 6.5 7.1 20.8 8 29.7 4.5.7 2 1.7 3.8 3 5.3-3.7 2.5-8.8 3.8-14.3 3.8zm26.7 0c-7.9 0-14.3-6.4-14.3-14.2s6.4-14.2 14.2-14.2c7.9 0 14.2 6.4 14.2 14.2s-6.3 14.2-14.1 14.2z" fill="#e1e6fa"/></g><g transform="matrix(0.9216111436340142 -0.9216111436340142 0.9216111436340142 0.9216111436340142 232.84819248478098 223.23372726826017)" id="L1_37"><path d="m64 6.3h-22.2l-4.1-4.5c-.2-.2-.5-.3-.7-.3h-7c-.3 0-.5.1-.7.3l-4.1 4.5h-22.2c-.6 0-1 .4-1 1v5.1c0 .6.4 1 1 1h1.6v36.5c0 .6.4 1 1 1h26.9v5.7c-2.2.5-3.8 2.7-3.4 5.2.3 1.8 1.7 3.2 3.4 3.6 2.9.6 5.5-1.6 5.5-4.4 0-2.1-1.5-3.9-3.5-4.4v-5.7h26.9c.6 0 1-.4 1-1v-36.5h1.6c.6 0 1-.4 1-1v-5.1c0-.5-.4-1-1-1zm-28.1 54.1c.4 1.8-1.2 3.5-3 3-.9-.2-1.6-.9-1.8-1.8-.5-1.8 1.2-3.5 3-3 .9.2 1.6.9 1.8 1.8zm24.5-11.5h-53.8v-35.5h53.8zm2.6-37.5h-59v-3.1h21.6c.3 0 .5-.1.7-.3l4.1-4.5h6l4.2 4.5c.2.2.5.3.7.3h21.7z" fill="#e1e6fa"/><path d="m16.8 37.2c-.7-.3-1.5-.5-2.3-.2-1.2.3-2.1 1.4-2.3 2.6-.3 2.2 1.5 4 3.7 3.7 1.2-.2 2.2-1.1 2.6-2.3.2-.8.1-1.6-.2-2.3l8.3-8.3c.5.3 1.1.5 1.8.5s1.4-.3 1.9-.7l7.3 5.4c-.3.9-.3 1.9 1.1 3.2.5.5 1.2.8 2 .9 1.8 0 3.2-1.4 3.2-3.2 0-.6-.2-1.1-.4-1.6l7.1-9.4c.8.3 1.6.3 2.6-.3.9-.6 1.6-1.5 1.7-2.6.1-2.1-1.8-3.7-3.9-3.3-1.2.3-2.2 1.3-2.4 2.5-.2.9.1 1.8.5 2.4l-7 9.2c-.4-.2-.8-.3-1.3-.3-.7 0-1.4.3-2 .7l-7.2-5.4c.3-.9.3-1.8-.9-3.1-.6-.6-1.3-1-2.1-1-1.8 0-3.3 1.4-3.3 3.2 0 .4.1.8.2 1.1zm-1.4 4.1c-.7 0-1.2-.5-1.2-1.2s.5-1.2 1.2-1.2 1.2.5 1.2 1.2-.5 1.2-1.2 1.2zm36.2-20.2c.7 0 1.2.5 1.2 1.2s-.5 1.2-1.2 1.2-1.2-.5-1.2-1.2.5-1.2 1.2-1.2zm-11 14c.7 0 1.2.5 1.2 1.2s-.5 1.2-1.2 1.2-1.2-.5-1.2-1.2.6-1.2 1.2-1.2zm-12.2-8.8c.7 0 1.2.5 1.2 1.2s-.5 1.2-1.2 1.2-1.2-.5-1.2-1.2c-.1-.6.5-1.2 1.2-1.2z" fill="#e1e6fa"/><path d="m10.5 24.1h5.8c.6 0 1-.4 1-1v-5.8c0-.6-.4-1-1-1h-5.8c-.6 0-1 .4-1 1v5.8c0 .6.4 1 1 1zm1-5.7h3.8v3.8h-3.8z" fill="#e1e6fa"/><path d="m49.7 39.2v5.8c0 .6.4 1 1 1h5.8c.6 0 1-.4 1-1v-5.8c0-.6-.4-1-1-1h-5.8c-.5 0-1 .5-1 1zm2 1h3.8v3.8h-3.8z" fill="#e1e6fa"/></g><g transform="matrix(0.89552241563797 0 0 0.89552241563797 283.0000013664587 269)" id="L1_38"><path d="m64.5 8.6h-7.7c-.6 0-1 .4-1 1v1.7c-9.8-2.5-10.8-3.8-11.1-4-.4-.2-9.3-4.5-13.8-1.2l-.2.1-2.1-2.5c-1.1-1.4-3.2-1.5-4.5-.4l-21.5 18c-1.3 1.1-1.5 3.2-.4 4.5l31.2 37.3c.6.8 1.5 1.1 2.5 1.1.7 0 1.5-.2 2.1-.7l21.5-18c1.3-1.1 1.5-3.2.4-4.5l-1.6-1.9h6.2c.6 0 1-.4 1-1v-28.5c0-.5-.4-1-1-1zm-20.8.4c2.3 1.8 9.6 3.7 12.1 4.4v17.8c-.9-.1-2.2-.1-3.1.6-.1.1-.2.1-.3.2-14.4-16.9-14-17.6-16.6-16.4-.4.2-.7.4-1.1.8-4.3 4.1-9 4-8.3 3.9-3.4 0-5.2-2.4-5.1-3.4 0-.6.5-.7 1.9-1.9l8.9-7.2c2.9-2.2 9.3.1 11.6 1.2zm7.8 40.7-23.1-27.6c1.4-.3 2.6-.8 3.7-1.4l22.3 26.6zm-29.9-41.6 2.8 3.3-2.9 2.4-2.7-3.2zm4.6-3.5c.9 0 1.1.9 3 2.9l-3 2.5-.2.2-2.8-3.3c2.2-1.8 2.3-2.3 3-2.3zm10.5 57.5c-.5.4-1.3.4-1.7-.1l-31.2-37.3c-.4-.5-.4-1.3.1-1.7l13.3-11.1 2.7 3.3c-1.9 2.5.9 7 6 7.2l24.1 28.6zm21.5-18.1-2.3 2-22-26.4c1.3-.9 2.2-1.7 2.3-1.9.4-.5.8-.5 1.1-.5 28.9 34.3 19 22.5 21.1 25 .4.7.3 1.4-.2 1.8zm-4.5-10.3c0-.2.1-.2.2-.3.4-.3 1.2-.3 1.9-.2v3zm9.8 3.5h-5.7v-4.8-19.8-2h5.7z" fill="#e1e6fa"/><path d="m44 50.6-5.6-6.7c-.2-.2-.4-.3-.7-.4-.3 0-.5.1-.7.2l-6.7 5.6c-.4.4-.5 1-.1 1.4l5.6 6.7c.2.2.5.4.8.4.2 0 .5-.1.6-.2l6.7-5.6c.4-.4.5-1 .1-1.4zm-7.4 4.8-4.3-5.2 5.2-4.3 4.3 5.2z" fill="#e1e6fa"/><path d="m24.5 40.9c-.4-.4-1-.5-1.4-.1s-.5 1-.1 1.4l3.4 4.1c.2.2.5.4.8.4.2 0 .5-.1.6-.2.4-.4.5-1 .1-1.4z" fill="#e1e6fa"/><path d="m17.2 32.2c-.4-.4-1-.5-1.4-.1s-.5 1-.1 1.4l3.4 4.1c.2.2.5.4.8.4.2 0 .5-.1.6-.2.4-.4.5-1 .1-1.4z" fill="#e1e6fa"/><path d="m9.8 23.4c-.4-.4-1-.5-1.4-.1s-.5 1-.1 1.4l3.4 4.1c.2.2.5.4.8.4.2 0 .5-.1.6-.2.4-.4.5-1 .1-1.4z" fill="#e1e6fa"/></g><g transform="matrix(0.8354090373116528 -0.8354090373116528 0.8354090373116528 0.8354090373116528 71.66948877628997 290.7515633771852)" id="L1_39"><path d="m65.3 7.4c-.2-.2-.4-.3-.7-.4l-26.4-3c-.3 0-.5 0-.7.2s-.3.4-.4.7l-2.1 18.9-8.9 4.7c-3.8 1.8-8.8 10.2-9 10.6-1.5 2.7-3.2 3.6-4.3 3.9v-1.8c0-.6-.4-1-1-1h-9.3c-.6 0-1 .4-1 1v20.7c0 .6.4 1 1 1h9.3c.6 0 1-.4 1-1v-3.1h8.3c6.2 0 7.2-2.9 9.4-5.6 0 1 .3 2 .8 2.8s1.6 1.6 3.6 1.6c.5 0 .9-.4 1-.9l.7-4.6h.1c1.1 1.2 4 1.9 4.3.5l10.1 1.1c8.8 1 8.1.9 8.2.9.5 0 .9-.4 1-.9l5.2-45.7c0-.1-.1-.3-.2-.6zm-5.9 37.2c-4.4 0-8.1 3-9 7.2l-9.1-1 1.3-8.6c.8-.7.8-.7.9-.8 2.7-3.3-1.3-8.2-5.6-6-.1 0-.1.1-.2.1l-2.3 1.8 2.6-23h.6c4.3 0 8-3 8.9-7.1l7.8.8v.2c0 4.3 3 8 7.2 9zm-7 7.3c.8-3.1 3.5-5.3 6.8-5.4l-.7 6.1zm-14.4-5.8 2.3-1.9-1.1 7.2c-2.1-.5-1.8-3.4-1.2-5.3zm7.7-39.2c-.9 3.2-3.9 5.5-7.3 5.3l.6-6zm17 8.3c-3.1-.8-5.3-3.6-5.4-6.9l6.1.7zm-29.4 23.7-1.4 1.1.5-5.2 1.4-.6zm-22.5 22h-7.3v-18.7h7.3zm16.3-6.5c-.1.1-1.3 2.4-6.1 2.4h-8.3v-11.7c1.4-.3 4-1.4 6-5 1.3-2.3 5.4-8.5 8.2-9.8l7.6-4-.7 5.6-2.8 1.2c-.3.1-.6.5-.6.8l-.7 8.1c0 .4.2.8.5 1 .4.2.8.2 1.1-.1.6-.4 8.1-6.3 7.6-5.9 2.6-1.2 4.2 1.4 3.1 2.9l-6.1 5.2-4.5 3.8s-.1.1-.1.1c-.8 1-3.8 4.7-4.2 5.4zm5.8.5c-.8-1.2-.4-3.5 0-4.6l2.3-1.9-1.1 7.2c-.5-.1-.9-.4-1.2-.7z" fill="#e1e6fa"/><path d="m49.4 22.8c-3.6 0-6.6 3-6.6 6.6s3 6.6 6.6 6.6 6.6-3 6.6-6.6-3-6.6-6.6-6.6zm0 11.2c-2.5 0-4.6-2.1-4.6-4.6s2.1-4.6 4.6-4.6 4.6 2.1 4.6 4.6c0 2.6-2.1 4.6-4.6 4.6z" fill="#e1e6fa"/></g><g transform="matrix(1.0236920751328549 -1.0236920751328549 1.0236920751328549 1.0236920751328549 -17.536185068302814 240.00640784481664)" id="L1_40"><path d="m57 1.5h-47c-3 0-5.4 2.4-5.4 5.3v47.1c0 2.9 2.4 5.3 5.3 5.3h2.3v2.8c0 1.9 1.5 3.4 3.4 3.4h6.6c1.9 0 3.4-1.5 3.4-3.4v-2.8h15.7v2.8c0 1.9 1.5 3.4 3.4 3.4h6.6c1.9 0 3.4-1.5 3.4-3.4v-2.8h2.3c2.9 0 5.3-2.4 5.3-5.3v-47.1c.1-2.9-2.3-5.3-5.3-5.3zm-33.4 60.6c0 .8-.6 1.4-1.4 1.4h-6.6c-.8 0-1.4-.6-1.4-1.4v-2.8h9.4zm29.1 0c0 .8-.6 1.4-1.4 1.4h-6.6c-.8 0-1.4-.6-1.4-1.4v-2.8h9.4zm7.7-8.2c0 1.8-1.5 3.3-3.3 3.3h-2.3v-3.2c0-.6-.4-1-1-1s-1 .4-1 1v3.2h-4.8v-3.2c0-.6-.4-1-1-1s-1 .4-1 1v3.2h-3.6-1.1v-3.2c0-.6-.4-1-1-1s-1 .4-1 1v3.2h-4.7v-3.2c0-.6-.4-1-1-1s-1 .4-1 1v3.2h-4.7v-3.2c0-.6-.4-1-1-1s-1 .4-1 1v3.2h-1.1-3.8v-3.2c0-.6-.4-1-1-1s-1 .4-1 1v3.2h-4.7v-3.2c0-.6-.4-1-1-1s-1 .4-1 1v3.2h-2.3c-1.8 0-3.3-1.5-3.3-3.3v-47.1c-.1-1.8 1.4-3.3 3.3-3.3h47c1.8 0 3.3 1.5 3.3 3.3v47.1z" fill="#e1e6fa"/><path d="m54.2 11.3h-41.4c-.6 0-1 .4-1 1v4.4h-2.4c-.6 0-1 .4-1 1v6.7c0 .6.4 1 1 1h2.4v10h-2.4c-.6 0-1 .4-1 1v6.7c0 .6.4 1 1 1h2.4v4.4c0 .6.4 1 1 1h41.4c.6 0 1-.4 1-1v-36.2c0-.6-.5-1-1-1zm-43.8 7.4h5c1.3 0 2.4 1.1 2.4 2.4s-1.1 2.3-2.4 2.3h-2.6s0 0 0 0h-2.4zm0 18.7h2.4s0 0 0 0h2.6c1.3 0 2.4 1.1 2.4 2.4s-1.1 2.3-2.4 2.3h-5zm42.8 10.1h-39.4v-3.4h1.6c2.4 0 4.4-1.9 4.4-4.3s-2-4.4-4.4-4.4h-1.6v-10h1.6c2.4 0 4.4-1.9 4.4-4.3s-2-4.4-4.4-4.4h-1.6v-3.4h39.4z" fill="#e1e6fa"/><path d="m26.7 8.4h18.9c.6 0 1-.4 1-1s-.4-1-1-1h-18.9c-.6 0-1 .4-1 1s.5 1 1 1z" fill="#e1e6fa"/><path d="m21.3 8.4h2.3c.6 0 1-.4 1-1s-.4-1-1-1h-2.3c-.6 0-1 .4-1 1s.5 1 1 1z" fill="#e1e6fa"/><path d="m41 39.6c0 2.6 2.1 4.7 4.7 4.7s4.7-2.1 4.7-4.7c0-2.2-1.6-4.1-3.7-4.6v-9.3c2.1-.5 3.7-2.3 3.7-4.6 0-2.6-2.1-4.7-4.7-4.7s-4.7 2.2-4.7 4.8c0 2.2 1.6 4.1 3.7 4.6v9.2c-2.1.5-3.7 2.3-3.7 4.6zm7.3 0c0 1.5-1.2 2.7-2.7 2.7s-2.7-1.2-2.7-2.7c0-1.1.7-2.1 1.7-2.5v2.5c0 .6.4 1 1 1s1-.4 1-1v-2.5c1 .4 1.7 1.4 1.7 2.5zm-5.3-18.4c0-1.5 1.2-2.7 2.7-2.7s2.7 1.2 2.7 2.7c0 1.1-.7 2.1-1.7 2.5v-2.5c0-.6-.4-1-1-1s-1 .4-1 1v2.5c-1-.4-1.7-1.4-1.7-2.5z" fill="#e1e6fa"/><path d="m29.5 40c5.3 0 9.6-4.3 9.6-9.6s-4.3-9.6-9.6-9.6-9.6 4.3-9.6 9.6 4.3 9.6 9.6 9.6zm0-17.2c4.2 0 7.6 3.4 7.6 7.6s-3.5 7.6-7.6 7.6-7.6-3.4-7.6-7.6 3.4-7.6 7.6-7.6z" fill="#e1e6fa"/><path d="m29.5 26c.6 0 1-.4 1-1v-.6c0-.6-.4-1-1-1s-1 .4-1 1v.6c0 .5.4 1 1 1z" fill="#e1e6fa"/><path d="m29.5 34.8c-.6 0-1 .4-1 1v.6c0 .6.4 1 1 1s1-.4 1-1v-.6c0-.6-.5-1-1-1z" fill="#e1e6fa"/><path d="m24.9 27.3c.2.2.5.3.7.3s.5-.1.7-.3c.4-.4.4-1 0-1.4l-.5-.5c-.4-.4-1-.4-1.4 0s-.4 1 0 1.4z" fill="#e1e6fa"/><path d="m33 35.4c.2.2.5.3.7.3s.5-.1.7-.3c.4-.4.4-1 0-1.4l-.4-.5c-.4-.4-1-.4-1.4 0s-.4 1 0 1.4z" fill="#e1e6fa"/><path d="m25.1 30.4c0-.6-.4-1-1-1h-.6c-.6 0-1 .4-1 1s.4 1 1 1h.6c.5 0 1-.5 1-1z" fill="#e1e6fa"/><path d="m33.9 30.4c0 .6.4 1 1 1h.6c.6 0 1-.4 1-1s-.4-1-1-1h-.6c-.6 0-1 .4-1 1z" fill="#e1e6fa"/><path d="m24.9 33.5-.4.5c-.4.4-.4 1 0 1.4.2.2.5.3.7.3s.5-.1.7-.3l.5-.5c.4-.4.4-1 0-1.4s-1.1-.4-1.5 0z" fill="#e1e6fa"/><path d="m33.3 27.6c.3 0 .5-.1.7-.3l.5-.5c.4-.4.4-1 0-1.4s-1-.4-1.4 0l-.5.5c-.4.4-.4 1 0 1.4.2.2.4.3.7.3z" fill="#e1e6fa"/><circle cx="29" cy="30" r="1" fill="#e1e6fa"/></g><g transform="matrix(1.4510973747094678 -0.626610207696221 0.626610207696221 1.4510973747094678 70.59931939497642 29.49311566055618)" id="L1_41"><path d="m59.7 27.4h-.2c-.1-.3-.3-.6-.5-.9-10.9-15.7 1.2 1.8-11.7-16.8l-1-1.5c-1.8-2.6-5.4-3.3-8.1-1.5l-34.2 23.8c-2.6 1.8-3.3 5.4-1.5 8.1l.9 1.3c12 17.3 7.9 11.4 8.8 12.7v2.9c0 3.2 2.6 5.8 5.8 5.8h41.7c3.2 0 5.8-2.6 5.8-5.8v-22.3c0-3.2-2.6-5.8-5.8-5.8zm-2.5 0h-3.6c-.2-.5-.4-1-.7-1.4-.8-1.2-2.1-2-3.4-2.2-1.4-.3-2.8.1-4 .9-1 .7-1.7 1.7-2 2.8h-8.5l15-10.5zm-5.8 0h-5.9c.2-.4.6-.8 1-1.1.7-.5 1.6-.7 2.5-.5.9.1 1.6.6 2.2 1.4.1 0 .1.1.2.2zm-5.2-15.9 2.7 3.9-17.3 12h-8.3zm-34 37.5-2.7-3.9 2.7-1.9zm0-8.2-3.9 2.7c-.1-.1-2.9-4.1-2.7-3.9l6.6-4.5zm0-8.3c0 .1 0 .1 0 0l-7.7 5.4-.3-.5c-1.2-1.7-.8-4.1 1-5.3l34.2-23.7c.7-.5 1.4-.7 2.1-.7 1.2 0 2.4.6 3.1 1.6l.4.6-25.3 17.5h-1.7c-3 0-5.4 2.2-5.8 5.1zm51.3 23c0 2.1-1.7 3.8-3.8 3.8h-41.7c-2.1 0-3.8-1.7-3.8-3.8 0 0 .1-22.9.1-23.1 0-.1 0-.1.1-.2.4-1.6 1.9-2.8 3.6-2.8h41.7c2.1 0 3.8 1.7 3.8 3.8z" fill="#e1e6fa"/><path d="m22.1 52.3c-2.8.2-5.3-.7-5.3 1 0 .6.4 1 1 1h4.3c.6 0 1-.4 1-1s-.5-1-1-1z" fill="#e1e6fa"/><path d="m31.5 52.3h-4.3c-.6 0-1 .4-1 1s.4 1 1 1h4.3c.6 0 1-.4 1-1s-.4-1-1-1z" fill="#e1e6fa"/><path d="m41 52.3h-4.3c-.6 0-1 .4-1 1s.4 1 1 1h4.3c.6 0 1-.4 1-1s-.5-1-1-1z" fill="#e1e6fa"/><path d="m50.4 52.3h-4.3c-.6 0-1 .4-1 1s.4 1 1 1h4.3c.6 0 1-.4 1-1s-.4-1-1-1z" fill="#e1e6fa"/><path d="m59.9 52.3h-4.3c-.6 0-1 .4-1 1s.4 1 1 1h4.3c.6 0 1-.4 1-1s-.4-1-1-1z" fill="#e1e6fa"/><path d="m39.9 35.5h17.4c.6 0 1-.4 1-1s-.4-1-1-1h-17.4c-.6 0-1 .4-1 1s.4 1 1 1z" fill="#e1e6fa"/><path d="m34.4 33.6c0-.5-.2-1-.6-1.3s-.8-.6-1.3-.6h-12.8c-1 0-1.9.9-1.9 1.9v10.1c0 .5.2 1 .6 1.3.4.4.8.6 1.3.6h3.5 5.7.1.1 3.5c.5 0 1-.2 1.3-.6.4-.4.6-.8.6-1.3zm-12.2 10h-2.4v-2h2.4zm0-4h-2.4v-1.8h2.4zm0-3.8h-2.4v-2h2.4zm5.7 7.8h-3.7v-9.9h3.7zm2-9.9h2.4v2h-2.4zm0 4.1h2.4v1.8h-2.4zm0 5.8v-2h2.4v2z" fill="#e1e6fa"/></g><g transform="matrix(0.6430868234566741 -0.9807073589764765 0.9807073589764765 0.6430868234566741 -1.735987143221223 343.0249225284904)" id="L1_42"><path d="m40.8 58.7h-1.2v-10.4c0-.6-.4-1-1-1s-1 .4-1 1v10.4h-6.7v-8.9c0-.6-.4-1-1-1s-1 .4-1 1v8.9h-6.7v-7.5c0-.6-.4-1-1-1s-1 .4-1 1v7.5h-6.7v-6c0-.6-.4-1-1-1s-1 .4-1 1v6h-1.2c-.6 0-1 .4-1 1s.4 1 1 1h30.5c.6 0 1-.4 1-1s-.5-1-1-1z" fill="#e1e6fa"/><path d="m20.8 31.2c0-.6-.4-1-1-1h-5.1v-5.1c0-.6-.4-1-1-1-3.9 0-7.1 3.2-7.1 7.1s3.2 7.1 7.1 7.1 7.1-3.2 7.1-7.1zm-12.2 0c0-2.5 1.8-4.5 4.1-5v5c0 .6.4 1 1 1h5c-.5 2.3-2.5 4.1-5 4.1-2.8 0-5.1-2.3-5.1-5.1z" fill="#e1e6fa"/><path d="m16.7 29.2h6.1c.6 0 1-.4 1-1 0-3.9-3.2-7.1-7.1-7.1-.6 0-1 .4-1 1v6.1c0 .5.4 1 1 1zm1-6c2 .4 3.6 2 4 4h-4z" fill="#e1e6fa"/><path d="m43.5 20.2h-16.4c-.6 0-1 .4-1 1s.4 1 1 1h16.3c.6 0 1-.4 1-1s-.4-1-.9-1z" fill="#e1e6fa"/><path d="m43.5 25.7h-16.4c-.6 0-1 .4-1 1s.4 1 1 1h16.3c.6 0 1-.4 1-1s-.4-1-.9-1z" fill="#e1e6fa"/><path d="m43.5 31.2h-16.4c-.6 0-1 .4-1 1s.4 1 1 1h16.3c.6 0 1-.4 1-1s-.4-1-.9-1z" fill="#e1e6fa"/><path d="m43.5 36.8h-16.4c-.6 0-1 .4-1 1s.4 1 1 1h16.3c.6 0 1-.4 1-1s-.4-1-.9-1z" fill="#e1e6fa"/><path d="m11 48.9c.1.5.6.9 1.2.8l21.5-4.2-.9 1.2c-.3.4-.2 1.1.2 1.4s1.1.2 1.4-.2l2.3-3.2c.3-.4.2-1.1-.2-1.4l-3.2-2.3c-.4-.3-1.1-.2-1.4.2s-.2 1.1.2 1.4l1.3.9-21.7 4.2c-.4.1-.8.6-.7 1.2z" fill="#e1e6fa"/><path d="m25 9.9h1c.6 0 1-.4 1-1s-.4-1-1-1h-1c-.6 0-1 .4-1 1s.4 1 1 1z" fill="#e1e6fa"/><path d="m64 34.8-2.6-.5c-.3-1-.7-2-1.2-2.9l1.5-2.2c.3-.4.2-.9-.1-1.3l-3.6-3.4c-.3-.3-.9-.4-1.3-.1l-2.2 1.5c-.9-.5-1.9-.9-2.9-1.2l-.5-2.6c-.1-.5-.5-.8-1-.8h-1.5v-7.3c0-1.7-1.4-3.1-3.1-3.1h-9.5l-.4-1.8c-.2-1-1.1-1.7-2.1-1.7h-2.2v-.1c0-3.2-2.6-5.8-5.8-5.8s-5.8 2.6-5.8 5.8v.1h-2.1c-1 0-1.9.7-2.1 1.7l-.5 1.9h-9.7c-1.7 0-3.1 1.4-3.1 3.1v48.4c0 1.7 1.4 3.1 3.1 3.1h40.4c1.7 0 3.1-1.4 3.1-3.1v-7.2h1.5c.5 0 .9-.3 1-.8l.5-2.6c1-.3 2-.7 2.9-1.2l2.2 1.5c.4.3.9.2 1.3-.1l3.5-3.5c.3-.3.4-.9.1-1.3l-1.6-2.3c.5-.9.9-1.9 1.2-2.9l2.6-.5c.5-.1.8-.5.8-1v-5c0-.3-.4-.7-.8-.8zm-46.6-25.3c0-.1.1-.1.1-.1h3.1c.6 0 1-.4 1-1v-1.1c0-2.1 1.7-3.8 3.8-3.8s3.8 1.7 3.8 3.8v1.1c0 .6.4 1 1 1h3.2c.1 0 .1.1.1.1l.9 4.5v.1s-.1.1-.1.1h-17.7c-.1 0-.1 0-.1-.1v-.1zm29.4 52.9c0 .6-.5 1.1-1.1 1.1h-40.4c-.6 0-1.1-.5-1.1-1.1v-48.4c0-.6.5-1.1 1.1-1.1h9.3l-.1.7c-.1.6 0 1.3.4 1.8s1 .8 1.7.8h17.8c.7 0 1.3-.3 1.7-.8s.6-1.2.4-1.8l-.1-.6h9.3c.6 0 1.1.5 1.1 1.1zm2-30c2.8.5 4.9 2.9 4.9 5.8s-2.1 5.4-4.9 5.8zm14 7.5-2.4.4c-.4.1-.7.4-.8.8-.3 1.2-.8 2.4-1.4 3.5-.2.3-.2.8 0 1.1l1.4 2-2.4 2.3-2-1.4c-.3-.2-.8-.2-1.1 0-1 .6-2.2 1.1-3.5 1.4-.4.1-.7.4-.8.8l-.4 2.4h-.6v-7.2c3.9-.5 6.9-3.8 6.9-7.9s-3-7.4-6.9-7.9v-7.1h.6l.4 2.4c.1.4.4.7.8.8 1.3.3 2.5.8 3.5 1.4.3.2.8.2 1.1 0l2-1.4 2.4 2.3-1.4 2c-.2.3-.2.8 0 1.1.7 1.1 1.2 2.3 1.5 3.5.1.4.4.7.8.8l2.4.4v3.5z" fill="#e1e6fa"/></g><g transform="matrix(0.5927590944637331 -0.7409488453214154 0.7409488453214154 0.5927590944637331 52.765347986248386 151.78269182692904)" id="L1_44"><path d="m61.2 41.4h-9.9v-38.9c0-.6-.4-1-1-1h-44.5c-.6 0-1 .4-1 1v56.5c0 3.6 2.9 6.5 6.5 6.5h44.4c3.6 0 6.5-2.9 6.5-6.5v-16.6c0-.6-.5-1-1-1zm-49.9 22.1c-2.5 0-4.5-2-4.5-4.5v-55.5h42.4v38.9 16.6c0 1.7.7 3.3 1.8 4.5zm48.9-4.5c0 2.5-2 4.5-4.5 4.5-1.5 0-2.9-.8-3.7-2-.5-.7-.8-1.6-.8-2.5v-15.6h8.9v15.6z" fill="#e1e6fa"/><path d="m28.7 46.4h-4.9v-1.5c0-.6-.4-1-1-1h-5.8c-.6 0-1 .4-1 1v3.8h-4.9c-.6 0-1 .4-1 1v7.5c0 .6.4 1 1 1h5.9 5.9 5.9c.6 0 1-.4 1-1v-9.8c-.1-.5-.5-1-1.1-1zm-12.7 9.8h-3.9v-5.5h3.9zm5.9 0h-3.9v-10.3h3.9zm5.8 0h-3.9v-7.8h3.9z" fill="#e1e6fa"/><path d="m45 45.1h-12.1c-.6 0-1 .4-1 1s.4 1 1 1h12.1c.6 0 1-.4 1-1s-.5-1-1-1z" fill="#e1e6fa"/><path d="m45 50.5h-12.1c-.6 0-1 .4-1 1s.4 1 1 1h12.1c.6 0 1-.4 1-1s-.5-1-1-1z" fill="#e1e6fa"/><path d="m45 55.8h-12.1c-.6 0-1 .4-1 1s.4 1 1 1h12.1c.6 0 1-.4 1-1s-.5-1-1-1z" fill="#e1e6fa"/><path d="m28.5 33.1 6 6c2.4 2.4 6.3 2.4 8.7 0s2.4-6.3 0-8.7l-6-6c1.5-4.6.4-9.9-3.3-13.5-5.2-5.2-13.7-5.2-18.9 0s-5.2 13.7 0 18.9c3.5 3.5 8.7 4.8 13.5 3.3zm13.3-1.3c1.6 1.6 1.6 4.2 0 5.9-1.6 1.6-4.2 1.6-5.9 0l-5.4-5.4c2.4-1.2 4.6-3.4 5.9-5.9zm-25.3-19.5c2.2-2.2 5.1-3.3 8-3.3 12.3 0 15.9 17.3 4.2 21.9-11.5 4.6-20.9-9.9-12.2-18.6z" fill="#e1e6fa"/><path d="m24.5 28.9c4.7 0 8.5-3.8 8.5-8.5s0 0 0 0c0-4.7-3.8-8.5-8.5-8.5s-8.5 3.8-8.5 8.5 3.8 8.5 8.5 8.5zm1-15c2.8.4 5 2.6 5.4 5.4h-5.4zm-.6 7.5h6c-.5 3.2-3.2 5.5-6.4 5.5-1.4 0-2.7-.4-3.8-1.3zm-1.4-7.5v6l-4.3 4.3c-2.8-3.9-.5-9.5 4.3-10.3z" fill="#e1e6fa"/></g><g transform="matrix(0.9389765837064711 0.3800619378153366 -0.3800619378153366 0.9389765837064711 34.82800594725291 29.92239769475279)" id="L1_45"><path d="m64.2 48.8-1.9-.4c-.2-.7-.5-1.4-.9-2.1l1.1-1.6c.3-.4.2-.9-.1-1.3l-2.8-2.8c-.3-.3-.9-.4-1.3-.1l-1.6 1.1c-.6-.3-1.2-.6-1.9-.8v-34.4c0-1.7-1.4-3.2-3.2-3.2h-7v-.7c0-.6-.4-1-1-1h-18.8c-.6 0-1 .4-1 1v.7h-8.5c-1.7 0-3.2 1.4-3.2 3.2v47.4c0 1.7 1.4 3.2 3.2 3.2h25.9c.1.1.1.1.1.2l-1.1 1.6c-.3.4-.2.9.1 1.3l2.8 2.8c.3.3.9.4 1.3.1l1.6-1.1c.7.4 1.4.6 2.1.9l.3 1.9c.1.5.5.8 1 .8h3.9c.5 0 .9-.3 1-.8l.3-1.9c.7-.2 1.4-.5 2.1-.9l1.6 1.1c.4.3.9.2 1.3-.1l2.8-2.8c.3-.3.4-.9.1-1.3l-1.1-1.6c.4-.7.6-1.4.9-2.1l1.9-.3c.5-.1.8-.5.8-1v-3.9c.1-.6-.3-1-.8-1.1zm-21.5-45.3v.7s0 0 0 0v4.9h-16.9v-4.9s0 0 0 0v-.7zm-28.5 50.3v-47.4c0-.6.5-1.2 1.2-1.2h8.5v4.9c0 .6.4 1 1 1h18.8c.6 0 1-.4 1-1v-4.9h7c.6 0 1.2.5 1.2 1.2v31.7h-3.5c-.5 0-.9.3-1 .8l-.3 1.9c-.7.2-1.4.5-2.1.9l-1.6-1.1c-.4-.3-.9-.2-1.3.1l-2.8 2.8c-.3.3-.4.9-.1 1.3l1.1 1.6c-.4.7-.7 1.4-.9 2.1l-1.9.4c-.5.1-.8.5-.8 1v3.9c0 .5.3.9.8 1l1.1.2h-24.3c-.6 0-1.1-.6-1.1-1.2zm48.9-.9-1.7.3c-.4.1-.7.4-.8.8-.2.9-.6 1.8-1.1 2.6-.2.4-.2.8 0 1.1l1 1.4-1.6 1.6-1.5-1c-.3-.2-.8-.2-1.1 0-.8.5-1.7.9-2.7 1.1-.4.1-.7.4-.8.8l-.3 1.7h-2.3l-.3-1.7c-.1-.4-.4-.7-.8-.8-1-.2-1.8-.6-2.7-1.1-.3-.2-.8-.2-1.1 0l-1.4 1-1.6-1.6 1-1.4c.2-.3.2-.8 0-1.1-.5-.8-.9-1.7-1.1-2.7-.1-.4-.4-.7-.8-.8l-1.7-.3v-2.3l1.7-.3c.4-.1.7-.4.8-.8.2-.9.6-1.8 1.1-2.7.2-.4.2-.8 0-1.1l-1-1.4 1.6-1.6 1.4 1c.3.2.8.2 1.1 0 .8-.5 1.7-.9 2.7-1.1.4-.1.7-.4.8-.8l.3-1.7h2.3l.3 1.7c.2 1.1 1.3.6 3.5 1.9.3.2.8.2 1.1 0l1.4-1 1.6 1.6-1 1.4c-.2.3-.2.8 0 1.1.5.8.9 1.7 1.1 2.7.1.4.4.7.8.8l1.7.3v2.4z" fill="#e1e6fa"/><path d="m52.8 44.8c-5-1-9.4 3.4-8.4 8.4.5 2.8 2.8 5.1 5.6 5.6 5 1 9.4-3.4 8.4-8.4-.5-2.8-2.8-5.1-5.6-5.6zm-.3 12c-3.8.8-7.1-2.5-6.2-6.2.4-1.9 2-3.4 3.8-3.8 3.8-.8 7.1 2.5 6.2 6.2-.3 1.9-1.9 3.4-3.8 3.8z" fill="#e1e6fa"/><path d="m7.5 17.1h-3.6c-1.1 0-2 .9-2 2v39.3c0 .1 0 .2.1.3v.1l2.8 5.7c.2.3.5.6.9.6s.7-.2.9-.6l2.8-5.7s0 0 0-.1.1-.2.1-.3v-39.3c-.1-1.1-.9-2-2-2zm-3.6 8.1h3.5v32.1h-3.5zm0-6.1h3.5v4.1h-3.5zm1.8 42.7-1.2-2.4h2.3z" fill="#e1e6fa"/><path d="m26.5 17.4-3.4 3.4-1.3-1.3c-.4-.4-1-.4-1.4 0s-.4 1 0 1.4l2 2c.2.2.5.3.7.3s.5-.1.7-.3l4.1-4.1c.4-.4.4-1 0-1.4s-1-.4-1.4 0z" fill="#e1e6fa"/><path d="m26.5 25.9-3.4 3.4-1.3-1.3c-.4-.4-1-.4-1.4 0s-.4 1 0 1.4l2 2c.2.2.5.3.7.3s.5-.1.7-.3l4.1-4.1c.4-.4.4-1 0-1.4s-1-.4-1.4 0z" fill="#e1e6fa"/><path d="m31.2 21.2h14.7c.6 0 1-.4 1-1s-.4-1-1-1h-14.7c-.6 0-1 .4-1 1s.4 1 1 1z" fill="#e1e6fa"/><path d="m46.9 28.7c0-.6-.4-1-1-1h-14.7c-.6 0-1 .4-1 1s.4 1 1 1h14.7c.6 0 1-.5 1-1z" fill="#e1e6fa"/><path d="m28.4 7.3h.8c.6 0 1-.4 1-1s-.4-1-1-1h-.8c-.6 0-1 .4-1 1s.5 1 1 1z" fill="#e1e6fa"/><path d="m33.9 7.3h.8c.6 0 1-.4 1-1s-.4-1-1-1h-.8c-.6 0-1 .4-1 1s.4 1 1 1z" fill="#e1e6fa"/><path d="m39.3 7.3h.8c.6 0 1-.4 1-1s-.4-1-1-1h-.8c-.6 0-1 .4-1 1s.5 1 1 1z" fill="#e1e6fa"/></g></defs><g fi:class="KUsePattern"><pattern id="pattern_L1_26" width="350" height="350" patternUnits="userSpaceOnUse"><use xlink:href="#L1_26" x="-350" y="-350"/><use xlink:href="#L1_26" x="0" y="-350"/><use xlink:href="#L1_26" x="350" y="-350"/><use xlink:href="#L1_26" x="-350" y="0"/><use xlink:href="#L1_26" x="0" y="0"/><use xlink:href="#L1_26" x="350" y="0"/><use xlink:href="#L1_26" x="-350" y="350"/><use xlink:href="#L1_26" x="0" y="350"/><use xlink:href="#L1_26" x="350" y="350"/></pattern><rect x="0" y="0" width="100%" height="100%" fill="url(#pattern_L1_26)"/></g><g fi:class="KUsePattern"><pattern id="pattern_L1_27" width="350" height="350" patternUnits="userSpaceOnUse"><use xlink:href="#L1_27" x="-350" y="-350"/><use xlink:href="#L1_27" x="0" y="-350"/><use xlink:href="#L1_27" x="350" y="-350"/><use xlink:href="#L1_27" x="-350" y="0"/><use xlink:href="#L1_27" x="0" y="0"/><use xlink:href="#L1_27" x="350" y="0"/><use xlink:href="#L1_27" x="-350" y="350"/><use xlink:href="#L1_27" x="0" y="350"/><use xlink:href="#L1_27" x="350" y="350"/></pattern><rect x="0" y="0" width="100%" height="100%" fill="url(#pattern_L1_27)"/></g><g fi:class="KUsePattern"><pattern id="pattern_L1_28" width="350" height="350" patternUnits="userSpaceOnUse"><use xlink:href="#L1_28" x="-350" y="-350"/><use xlink:href="#L1_28" x="0" y="-350"/><use xlink:href="#L1_28" x="350" y="-350"/><use xlink:href="#L1_28" x="-350" y="0"/><use xlink:href="#L1_28" x="0" y="0"/><use xlink:href="#L1_28" x="350" y="0"/><use xlink:href="#L1_28" x="-350" y="350"/><use xlink:href="#L1_28" x="0" y="350"/><use xlink:href="#L1_28" x="350" y="350"/></pattern><rect x="0" y="0" width="100%" height="100%" fill="url(#pattern_L1_28)"/></g><g fi:class="KUsePattern"><pattern id="pattern_L1_29" width="350" height="350" patternUnits="userSpaceOnUse"><use xlink:href="#L1_29" x="-350" y="-350"/><use xlink:href="#L1_29" x="0" y="-350"/><use xlink:href="#L1_29" x="350" y="-350"/><use xlink:href="#L1_29" x="-350" y="0"/><use xlink:href="#L1_29" x="0" y="0"/><use xlink:href="#L1_29" x="350" y="0"/><use xlink:href="#L1_29" x="-350" y="350"/><use xlink:href="#L1_29" x="0" y="350"/><use xlink:href="#L1_29" x="350" y="350"/></pattern><rect x="0" y="0" width="100%" height="100%" fill="url(#pattern_L1_29)"/></g><g fi:class="KUsePattern"><pattern id="pattern_L1_30" width="350" height="350" patternUnits="userSpaceOnUse"><use xlink:href="#L1_30" x="-350" y="-350"/><use xlink:href="#L1_30" x="0" y="-350"/><use xlink:href="#L1_30" x="350" y="-350"/><use xlink:href="#L1_30" x="-350" y="0"/><use xlink:href="#L1_30" x="0" y="0"/><use xlink:href="#L1_30" x="350" y="0"/><use xlink:href="#L1_30" x="-350" y="350"/><use xlink:href="#L1_30" x="0" y="350"/><use xlink:href="#L1_30" x="350" y="350"/></pattern><rect x="0" y="0" width="100%" height="100%" fill="url(#pattern_L1_30)"/></g><g fi:class="KUsePattern"><pattern id="pattern_L1_31" width="350" height="350" patternUnits="userSpaceOnUse"><use xlink:href="#L1_31" x="-350" y="-350"/><use xlink:href="#L1_31" x="0" y="-350"/><use xlink:href="#L1_31" x="350" y="-350"/><use xlink:href="#L1_31" x="-350" y="0"/><use xlink:href="#L1_31" x="0" y="0"/><use xlink:href="#L1_31" x="350" y="0"/><use xlink:href="#L1_31" x="-350" y="350"/><use xlink:href="#L1_31" x="0" y="350"/><use xlink:href="#L1_31" x="350" y="350"/></pattern><rect x="0" y="0" width="100%" height="100%" fill="url(#pattern_L1_31)"/></g><g fi:class="KUsePattern"><pattern id="pattern_L1_36" width="350" height="350" patternUnits="userSpaceOnUse"><use xlink:href="#L1_36" x="-350" y="-350"/><use xlink:href="#L1_36" x="0" y="-350"/><use xlink:href="#L1_36" x="350" y="-350"/><use xlink:href="#L1_36" x="-350" y="0"/><use xlink:href="#L1_36" x="0" y="0"/><use xlink:href="#L1_36" x="350" y="0"/><use xlink:href="#L1_36" x="-350" y="350"/><use xlink:href="#L1_36" x="0" y="350"/><use xlink:href="#L1_36" x="350" y="350"/></pattern><rect x="0" y="0" width="100%" height="100%" fill="url(#pattern_L1_36)"/></g><g fi:class="KUsePattern"><pattern id="pattern_L1_37" width="350" height="350" patternUnits="userSpaceOnUse"><use xlink:href="#L1_37" x="-350" y="-350"/><use xlink:href="#L1_37" x="0" y="-350"/><use xlink:href="#L1_37" x="350" y="-350"/><use xlink:href="#L1_37" x="-350" y="0"/><use xlink:href="#L1_37" x="0" y="0"/><use xlink:href="#L1_37" x="350" y="0"/><use xlink:href="#L1_37" x="-350" y="350"/><use xlink:href="#L1_37" x="0" y="350"/><use xlink:href="#L1_37" x="350" y="350"/></pattern><rect x="0" y="0" width="100%" height="100%" fill="url(#pattern_L1_37)"/></g><g fi:class="KUsePattern"><pattern id="pattern_L1_38" width="350" height="350" patternUnits="userSpaceOnUse"><use xlink:href="#L1_38" x="-350" y="-350"/><use xlink:href="#L1_38" x="0" y="-350"/><use xlink:href="#L1_38" x="350" y="-350"/><use xlink:href="#L1_38" x="-350" y="0"/><use xlink:href="#L1_38" x="0" y="0"/><use xlink:href="#L1_38" x="350" y="0"/><use xlink:href="#L1_38" x="-350" y="350"/><use xlink:href="#L1_38" x="0" y="350"/><use xlink:href="#L1_38" x="350" y="350"/></pattern><rect x="0" y="0" width="100%" height="100%" fill="url(#pattern_L1_38)"/></g><g fi:class="KUsePattern"><pattern id="pattern_L1_39" width="350" height="350" patternUnits="userSpaceOnUse"><use xlink:href="#L1_39" x="-350" y="-350"/><use xlink:href="#L1_39" x="0" y="-350"/><use xlink:href="#L1_39" x="350" y="-350"/><use xlink:href="#L1_39" x="-350" y="0"/><use xlink:href="#L1_39" x="0" y="0"/><use xlink:href="#L1_39" x="350" y="0"/><use xlink:href="#L1_39" x="-350" y="350"/><use xlink:href="#L1_39" x="0" y="350"/><use xlink:href="#L1_39" x="350" y="350"/></pattern><rect x="0" y="0" width="100%" height="100%" fill="url(#pattern_L1_39)"/></g><g fi:class="KUsePattern"><pattern id="pattern_L1_40" width="350" height="350" patternUnits="userSpaceOnUse"><use xlink:href="#L1_40" x="-350" y="-350"/><use xlink:href="#L1_40" x="0" y="-350"/><use xlink:href="#L1_40" x="350" y="-350"/><use xlink:href="#L1_40" x="-350" y="0"/><use xlink:href="#L1_40" x="0" y="0"/><use xlink:href="#L1_40" x="350" y="0"/><use xlink:href="#L1_40" x="-350" y="350"/><use xlink:href="#L1_40" x="0" y="350"/><use xlink:href="#L1_40" x="350" y="350"/></pattern><rect x="0" y="0" width="100%" height="100%" fill="url(#pattern_L1_40)"/></g><g fi:class="KUsePattern"><pattern id="pattern_L1_41" width="350" height="350" patternUnits="userSpaceOnUse"><use xlink:href="#L1_41" x="-350" y="-350"/><use xlink:href="#L1_41" x="0" y="-350"/><use xlink:href="#L1_41" x="350" y="-350"/><use xlink:href="#L1_41" x="-350" y="0"/><use xlink:href="#L1_41" x="0" y="0"/><use xlink:href="#L1_41" x="350" y="0"/><use xlink:href="#L1_41" x="-350" y="350"/><use xlink:href="#L1_41" x="0" y="350"/><use xlink:href="#L1_41" x="350" y="350"/></pattern><rect x="0" y="0" width="100%" height="100%" fill="url(#pattern_L1_41)"/></g><g fi:class="KUsePattern"><pattern id="pattern_L1_42" width="350" height="350" patternUnits="userSpaceOnUse"><use xlink:href="#L1_42" x="-350" y="-350"/><use xlink:href="#L1_42" x="0" y="-350"/><use xlink:href="#L1_42" x="350" y="-350"/><use xlink:href="#L1_42" x="-350" y="0"/><use xlink:href="#L1_42" x="0" y="0"/><use xlink:href="#L1_42" x="350" y="0"/><use xlink:href="#L1_42" x="-350" y="350"/><use xlink:href="#L1_42" x="0" y="350"/><use xlink:href="#L1_42" x="350" y="350"/></pattern><rect x="0" y="0" width="100%" height="100%" fill="url(#pattern_L1_42)"/></g><g fi:class="KUsePattern"><pattern id="pattern_L1_44" width="350" height="350" patternUnits="userSpaceOnUse"><use xlink:href="#L1_44" x="-350" y="-350"/><use xlink:href="#L1_44" x="0" y="-350"/><use xlink:href="#L1_44" x="350" y="-350"/><use xlink:href="#L1_44" x="-350" y="0"/><use xlink:href="#L1_44" x="0" y="0"/><use xlink:href="#L1_44" x="350" y="0"/><use xlink:href="#L1_44" x="-350" y="350"/><use xlink:href="#L1_44" x="0" y="350"/><use xlink:href="#L1_44" x="350" y="350"/></pattern><rect x="0" y="0" width="100%" height="100%" fill="url(#pattern_L1_44)"/></g><g fi:class="KUsePattern"><pattern id="pattern_L1_45" width="350" height="350" patternUnits="userSpaceOnUse"><use xlink:href="#L1_45" x="-350" y="-350"/><use xlink:href="#L1_45" x="0" y="-350"/><use xlink:href="#L1_45" x="350" y="-350"/><use xlink:href="#L1_45" x="-350" y="0"/><use xlink:href="#L1_45" x="0" y="0"/><use xlink:href="#L1_45" x="350" y="0"/><use xlink:href="#L1_45" x="-350" y="350"/><use xlink:href="#L1_45" x="0" y="350"/><use xlink:href="#L1_45" x="350" y="350"/></pattern><rect x="0" y="0" width="100%" height="100%" fill="url(#pattern_L1_45)"/></g></svg>